ToBeContinued.ufo
<glyph name="exclam" format="2">
  <advance width="170"/>
  <unicode hex="0021"/>
  <outline>
    <contour>
      <point x="54" y="137" type="line"/>
      <point x="173" y="137" type="line"/>
      <point x="147" y="17" type="line"/>
      <point x="28" y="17" type="line"/>
    </contour>
    <contour>
      <point x="172" y="694" type="line"/>
      <point x="291" y="694" type="line"/>
      <point x="181" y="176" type="line"/>
      <point x="62" y="176" type="line"/>
    </contour>
  </outline>
</glyph>
<glyph name="numbersign" format="2">
  <advance width="573"/>
  <unicode hex="0023"/>
  <outline>
    <contour>
      <point x="470" y="693" type="line"/>
      <point x="588" y="693" type="line"/>
      <point x="562" y="571" type="line"/>
      <point x="674" y="571" type="line"/>
      <point x="648" y="451" type="line"/>
      <point x="536" y="451" type="line"/>
      <point x="507" y="315" type="line"/>
      <point x="622" y="315" type="line"/>
      <point x="596" y="195" type="line"/>
      <point x="481" y="195" type="line"/>
      <point x="453" y="65" type="line"/>
      <point x="335" y="65" type="line"/>
      <point x="363" y="195" type="line"/>
      <point x="279" y="195" type="line"/>
      <point x="251" y="65" type="line"/>
      <point x="133" y="65" type="line"/>
      <point x="161" y="195" type="line"/>
      <point x="62" y="195" type="line"/>
      <point x="88" y="315" type="line"/>
      <point x="187" y="315" type="line"/>
      <point x="216" y="451" type="line"/>
      <point x="114" y="451" type="line"/>
      <point x="140" y="571" type="line"/>
      <point x="242" y="571" type="line"/>
      <point x="268" y="693" type="line"/>
      <point x="386" y="693" type="line"/>
      <point x="360" y="571" type="line"/>
      <point x="444" y="571" type="line"/>
    </contour>
    <contour>
      <point x="305" y="315" type="line"/>
      <point x="389" y="315" type="line"/>
      <point x="418" y="451" type="line"/>
      <point x="334" y="451" type="line"/>
    </contour>
  </outline>
</glyph>
<glyph name="percent" format="2">
  <advance width="750"/>
  <unicode hex="0025"/>
  <outline>
    <contour>
      <point x="604" y="384" type="line"/>
      <point x="766" y="384" type="line"/>
      <point x="807" y="311" type="line"/>
      <point x="748" y="77" type="line"/>
      <point x="669" y="0" type="line"/>
      <point x="506" y="0" type="line"/>
      <point x="466" y="77" type="line"/>
      <point x="524" y="311" type="line"/>
    </contour>
    <contour>
      <point x="661" y="131" type="line"/>
      <point x="692" y="256" type="line"/>
      <point x="685" y="274" type="line"/>
      <point x="626" y="274" type="line"/>
      <point x="610" y="256" type="line"/>
      <point x="578" y="131" type="line"/>
      <point x="586" y="112" type="line"/>
      <point x="644" y="112" type="line"/>
    </contour>
    <contour>
      <point x="221" y="693" type="line"/>
      <point x="383" y="693" type="line"/>
      <point x="424" y="620" type="line"/>
      <point x="365" y="386" type="line"/>
      <point x="286" y="309" type="line"/>
      <point x="123" y="309" type="line"/>
      <point x="83" y="386" type="line"/>
      <point x="141" y="620" type="line"/>
    </contour>
    <contour>
      <point x="174" y="17" type="line"/>
      <point x="601" y="693" type="line"/>
      <point x="742" y="693" type="line"/>
      <point x="315" y="17" type="line"/>
    </contour>
    <contour>
      <point x="278" y="445" type="line"/>
      <point x="309" y="570" type="line"/>
      <point x="302" y="588" type="line"/>
      <point x="243" y="588" type="line"/>
      <point x="227" y="570" type="line"/>
      <point x="195" y="445" type="line"/>
      <point x="203" y="426" type="line"/>
      <point x="261" y="426" type="line"/>
    </contour>
  </outline>
</glyph>
<glyph name="ampersand" format="2">
  <advance width="833"/>
  <unicode hex="0026"/>
  <outline>
    <contour>
      <point x="499" y="258" type="line"/>
      <point x="474" y="139" type="line"/>
      <point x="410" y="139" type="line"/>
      <point x="315" y="17" type="line"/>
      <point x="113" y="17" type="line"/>
      <point x="54" y="152" type="line"/>
      <point x="89" y="317" type="line"/>
      <point x="152" y="392" type="line"/>
      <point x="121" y="467" type="line"/>
      <point x="141" y="564" type="line"/>
      <point x="257" y="693" type="line"/>
      <point x="486" y="693" type="line"/>
      <point x="547" y="568" type="line"/>
      <point x="518" y="432" type="line"/>
      <point x="406" y="316" type="line"/>
      <point x="236" y="316" type="line"/>
      <point x="228" y="307"/>
      <point x="200" y="279" type="qcurve"/>
      <point x="180" y="186" type="line"/>
      <point x="197" y="137" type="line"/>
      <point x="272" y="137" type="line"/>
      <point x="367" y="258" type="line"/>
    </contour>
    <contour>
      <point x="373" y="434" type="line"/>
      <point x="409" y="472" type="line"/>
      <point x="421" y="528" type="line"/>
      <point x="403" y="575" type="line"/>
      <point x="290" y="575" type="line"/>
      <point x="253" y="528" type="line"/>
      <point x="240" y="467" type="line"/>
      <point x="257" y="434" type="line"/>
    </contour>
  </outline>
</glyph>
<glyph name="quotesingle" format="2">
  <advance width="167"/>
  <unicode hex="0027"/>
  <outline>
    <contour>
      <point x="170" y="694" type="line"/>
      <point x="289" y="694" type="line"/>
      <point x="247" y="495" type="line"/>
      <point x="128" y="495" type="line"/>
    </contour>
  </outline>
</glyph>
<glyph name="parenleft" format="2">
  <advance width="195"/>
  <unicode hex="0028"/>
  <outline>
    <contour>
      <point x="185" y="709" type="line"/>
      <point x="305" y="844" type="line"/>
      <point x="458" y="844" type="line"/>
      <point x="432" y="724" type="line"/>
      <point x="337" y="724" type="line"/>
      <point x="298" y="675" type="line"/>
      <point x="150" y="1" type="line"/>
      <point x="166" y="-42" type="line"/>
      <point x="257" y="-42" type="line"/>
      <point x="230" y="-160" type="line"/>
      <point x="83" y="-160" type="line"/>
      <point x="22" y="-35" type="line"/>
    </contour>
  </outline>
</glyph>
<glyph name="parenright" format="2">
  <advance width="296"/>
  <unicode hex="0029"/>
  <outline>
    <contour>
      <point x="151" y="-25" type="line"/>
      <point x="31" y="-160" type="line"/>
      <point x="-122" y="-160" type="line"/>
      <point x="-96" y="-40" type="line"/>
      <point x="-1" y="-40" type="line"/>
      <point x="38" y="9" type="line"/>
      <point x="186" y="683" type="line"/>
      <point x="170" y="726" type="line"/>
      <point x="79" y="726" type="line"/>
      <point x="106" y="844" type="line"/>
      <point x="253" y="844" type="line"/>
      <point x="314" y="719" type="line"/>
    </contour>
  </outline>
</glyph>
<glyph name="asterisk" format="2">
  <advance width="459"/>
  <unicode hex="002A"/>
  <outline>
    <contour>
      <point x="459" y="324" type="line"/>
      <point x="356" y="387" type="line"/>
      <point x="332" y="257" type="line"/>
      <point x="229" y="257" type="line"/>
      <point x="251" y="376" type="line"/>
      <point x="177" y="337" type="line"/>
      <point x="112" y="421" type="line"/>
      <point x="215" y="475" type="line"/>
      <point x="133" y="527" type="line"/>
      <point x="195" y="624" type="line"/>
      <point x="287" y="566" type="line"/>
      <point x="311" y="693" type="line"/>
      <point x="414" y="693" type="line"/>
      <point x="391" y="569" type="line"/>
      <point x="494" y="624" type="line"/>
      <point x="558" y="539" type="line"/>
      <point x="436" y="475" type="line"/>
      <point x="522" y="421" type="line"/>
    </contour>
  </outline>
</glyph>
<glyph name="plus" format="2">
  <advance width="390"/>
  <unicode hex="002B"/>
  <outline>
    <contour>
      <point x="252" y="563" type="line"/>
      <point x="371" y="563" type="line"/>
      <point x="344" y="434" type="line"/>
      <point x="469" y="434" type="line"/>
      <point x="443" y="314" type="line"/>
      <point x="320" y="314" type="line"/>
      <point x="292" y="179" type="line"/>
      <point x="173" y="179" type="line"/>
      <point x="201" y="314" type="line"/>
      <point x="79" y="314" type="line"/>
      <point x="105" y="434" type="line"/>
      <point x="225" y="434" type="line"/>
    </contour>
  </outline>
</glyph>
<glyph name="hyphen" format="2">
  <advance width="305"/>
  <unicode hex="002D"/>
  <outline>
    <contour>
      <point x="79" y="314" type="line"/>
      <point x="105" y="434" type="line"/>
      <point x="387" y="434" type="line"/>
      <point x="361" y="314" type="line"/>
    </contour>
  </outline>
</glyph>
<glyph name="period" format="2">
  <advance width="165"/>
  <unicode hex="002E"/>
  <outline>
    <contour>
      <point x="26" y="17" type="line"/>
      <point x="52" y="137" type="line"/>
      <point x="171" y="137" type="line"/>
      <point x="145" y="17" type="line"/>
    </contour>
  </outline>
</glyph>
<glyph name="slash" format="2">
  <advance width="457"/>
  <unicode hex="002F"/>
  <outline>
    <contour>
      <point x="14" y="17" type="line"/>
      <point x="441" y="693" type="line"/>
      <point x="582" y="693" type="line"/>
      <point x="155" y="17" type="line"/>
    </contour>
  </outline>
</glyph>
<glyph name="one" format="2">
  <advance width="416"/>
  <unicode hex="0031"/>
  <outline>
    <contour>
      <point x="300" y="186" type="line"/>
      <point x="305" y="177"/>
      <point x="312" y="145"/>
      <point x="318" y="137" type="qcurve"/>
      <point x="415" y="137" type="line"/>
      <point x="389" y="17" type="line"/>
      <point x="233" y="17" type="line"/>
      <point x="174" y="152" type="line"/>
      <point x="264" y="575" type="line"/>
      <point x="144" y="575" type="line"/>
      <point x="169" y="694" type="line"/>
      <point x="408" y="694" type="line"/>
    </contour>
  </outline>
</glyph>
<glyph name="three" format="2">
  <advance width="460"/>
  <unicode hex="0033"/>
  <outline>
    <contour>
      <point x="260" y="693" type="line"/>
      <point x="489" y="693" type="line"/>
      <point x="549" y="564" type="line"/>
      <point x="518" y="415" type="line"/>
      <point x="462" y="359" type="line"/>
      <point x="470" y="345"/>
      <point x="485" y="315"/>
      <point x="494" y="302" type="qcurve"/>
      <point x="462" y="152" type="line"/>
      <point x="345" y="17" type="line"/>
      <point x="116" y="17" type="line"/>
      <point x="57" y="152" type="line"/>
      <point x="76" y="243" type="line"/>
      <point x="195" y="243" type="line"/>
      <point x="183" y="186" type="line"/>
      <point x="200" y="137" type="line"/>
      <point x="313" y="137" type="line"/>
      <point x="351" y="186" type="line"/>
      <point x="367" y="262" type="line"/>
      <point x="347" y="299" type="line"/>
      <point x="228" y="299" type="line"/>
      <point x="253" y="418" type="line"/>
      <point x="372" y="418" type="line"/>
      <point x="408" y="455" type="line"/>
      <point x="424" y="528" type="line"/>
      <point x="406" y="575" type="line"/>
      <point x="293" y="575" type="line"/>
      <point x="256" y="528" type="line"/>
      <point x="243" y="466" type="line"/>
      <point x="124" y="466" type="line"/>
      <point x="144" y="564" type="line"/>
    </contour>
  </outline>
</glyph>
<glyph name="four" format="2">
  <advance width="540"/>
  <unicode hex="0034"/>
  <outline>
    <contour>
      <point x="439" y="185" type="line"/>
      <point x="456" y="137" type="line"/>
      <point x="553" y="137" type="line"/>
      <point x="527" y="17" type="line"/>
      <point x="372" y="17" type="line"/>
      <point x="312" y="152" type="line"/>
      <point x="346" y="315" type="line"/>
      <point x="180" y="315" type="line"/>
      <point x="115" y="432" type="line"/>
      <point x="171" y="693" type="line"/>
      <point x="290" y="693" type="line"/>
      <point x="242" y="470" type="line"/>
      <point x="248" y="462"/>
      <point x="260" y="441"/>
      <point x="265" y="433" type="qcurve"/>
      <point x="372" y="433" type="line"/>
      <point x="427" y="693" type="line"/>
      <point x="547" y="693" type="line"/>
    </contour>
  </outline>
</glyph>
<glyph name="five" format="2">
  <advance width="454"/>
  <unicode hex="0035"/>
  <outline>
    <contour>
      <point x="171" y="693" type="line"/>
      <point x="576" y="693" type="line"/>
      <point x="528" y="467" type="line"/>
      <point x="410" y="467" type="line"/>
      <point x="433" y="575" type="line"/>
      <point x="265" y="575" type="line"/>
      <point x="235" y="433" type="line"/>
      <point x="433" y="433" type="line"/>
      <point x="496" y="317" type="line"/>
      <point x="461" y="152" type="line"/>
      <point x="344" y="17" type="line"/>
      <point x="115" y="17" type="line"/>
      <point x="56" y="152" type="line"/>
      <point x="75" y="243" type="line"/>
      <point x="194" y="243" type="line"/>
      <point x="182" y="186" type="line"/>
      <point x="199" y="137" type="line"/>
      <point x="312" y="137" type="line"/>
      <point x="350" y="186" type="line"/>
      <point x="370" y="278" type="line"/>
      <point x="349" y="315" type="line"/>
      <point x="90" y="315" type="line"/>
    </contour>
  </outline>
</glyph>
<glyph name="six" format="2">
  <advance width="465"/>
  <unicode hex="0036"/>
  <outline>
    <contour>
      <point x="264" y="693" type="line"/>
      <point x="493" y="693" type="line"/>
      <point x="553" y="564" type="line"/>
      <point x="533" y="467" type="line"/>
      <point x="415" y="467" type="line"/>
      <point x="428" y="528" type="line"/>
      <point x="410" y="575" type="line"/>
      <point x="296" y="575" type="line"/>
      <point x="260" y="528" type="line"/>
      <point x="240" y="433" type="line"/>
      <point x="438" y="433" type="line"/>
      <point x="501" y="317" type="line"/>
      <point x="466" y="152" type="line"/>
      <point x="349" y="17" type="line"/>
      <point x="120" y="17" type="line"/>
      <point x="60" y="152" type="line"/>
      <point x="147" y="564" type="line"/>
    </contour>
    <contour>
      <point x="354" y="315" type="line"/>
      <point x="214" y="315" type="line"/>
      <point x="187" y="186" type="line"/>
      <point x="203" y="137" type="line"/>
      <point x="317" y="137" type="line"/>
      <point x="355" y="186" type="line"/>
      <point x="375" y="278" type="line"/>
    </contour>
  </outline>
</glyph>
<glyph name="seven" format="2">
  <advance width="485"/>
  <unicode hex="0037"/>
  <outline>
    <contour>
      <point x="169" y="693" type="line"/>
      <point x="611" y="693" type="line"/>
      <point x="578" y="537" type="line"/>
      <point x="250" y="187" type="line"/>
      <point x="255" y="178"/>
      <point x="262" y="144"/>
      <point x="267" y="136" type="qcurve"/>
      <point x="363" y="136" type="line"/>
      <point x="338" y="17" type="line"/>
      <point x="182" y="17" type="line"/>
      <point x="105" y="186" type="line"/>
      <point x="467" y="575" type="line"/>
      <point x="263" y="575" type="line"/>
      <point x="240" y="466" type="line"/>
      <point x="121" y="466" type="line"/>
    </contour>
  </outline>
</glyph>
<glyph name="eight" format="2">
  <advance width="454"/>
  <unicode hex="0038"/>
  <outline>
    <contour>
      <point x="263" y="693" type="line"/>
      <point x="484" y="693" type="line"/>
      <point x="544" y="564" type="line"/>
      <point x="513" y="416" type="line"/>
      <point x="457" y="359" type="line"/>
      <point x="465" y="345"/>
      <point x="483" y="315"/>
      <point x="489" y="302" type="qcurve"/>
      <point x="457" y="152" type="line"/>
      <point x="340" y="17" type="line"/>
      <point x="119" y="17" type="line"/>
      <point x="58" y="153" type="line"/>
      <point x="90" y="302" type="line"/>
      <point x="147" y="359" type="line"/>
      <point x="114" y="416" type="line"/>
      <point x="145" y="564" type="line"/>
    </contour>
    <contour>
      <point x="346" y="186" type="line"/>
      <point x="362" y="262" type="line"/>
      <point x="342" y="299" type="line"/>
      <point x="236" y="299" type="line"/>
      <point x="200" y="263" type="line"/>
      <point x="184" y="186" type="line"/>
      <point x="202" y="137" type="line"/>
      <point x="308" y="137" type="line"/>
    </contour>
    <contour>
      <point x="257" y="528" type="line"/>
      <point x="241" y="455" type="line"/>
      <point x="246" y="446"/>
      <point x="257" y="428"/>
      <point x="261" y="418" type="qcurve"/>
      <point x="366" y="418" type="line"/>
      <point x="375" y="427"/>
      <point x="394" y="445"/>
      <point x="403" y="455" type="qcurve"/>
      <point x="419" y="528" type="line"/>
      <point x="401" y="575" type="line"/>
      <point x="295" y="575" type="line"/>
    </contour>
  </outline>
</glyph>
<glyph name="nine" format="2">
  <advance width="444"/>
  <unicode hex="0039"/>
  <outline>
    <contour>
      <point x="482" y="693" type="line"/>
      <point x="542" y="564" type="line"/>
      <point x="455" y="152" type="line"/>
      <point x="338" y="17" type="line"/>
      <point x="109" y="17" type="line"/>
      <point x="50" y="152" type="line"/>
      <point x="69" y="243" type="line"/>
      <point x="188" y="243" type="line"/>
      <point x="176" y="186" type="line"/>
      <point x="193" y="137" type="line"/>
      <point x="306" y="137" type="line"/>
      <point x="344" y="186" type="line"/>
      <point x="371" y="315" type="line"/>
      <point x="172" y="315" type="line"/>
      <point x="109" y="432" type="line"/>
      <point x="137" y="564" type="line"/>
      <point x="253" y="693" type="line"/>
    </contour>
    <contour>
      <point x="397" y="433" type="line"/>
      <point x="417" y="528" type="line"/>
      <point x="399" y="575" type="line"/>
      <point x="286" y="575" type="line"/>
      <point x="249" y="528" type="line"/>
      <point x="237" y="471" type="line"/>
      <point x="257" y="433" type="line"/>
    </contour>
  </outline>
</glyph>
<glyph name="colon" format="2">
  <advance width="165"/>
  <unicode hex="003A"/>
  <outline>
    <contour>
      <point x="52" y="137" type="line"/>
      <point x="78" y="257" type="line"/>
      <point x="197" y="257" type="line"/>
      <point x="171" y="137" type="line"/>
    </contour>
    <contour>
      <point x="145" y="575" type="line"/>
      <point x="264" y="575" type="line"/>
      <point x="239" y="456" type="line"/>
      <point x="120" y="456" type="line"/>
    </contour>
  </outline>
</glyph>
<glyph name="semicolon" format="2">
  <advance width="165"/>
  <unicode hex="003B"/>
  <outline>
    <contour>
      <point x="145" y="575" type="line"/>
      <point x="264" y="575" type="line"/>
      <point x="239" y="456" type="line"/>
      <point x="120" y="456" type="line"/>
    </contour>
    <contour>
      <point x="153" y="52" type="line"/>
      <point x="34" y="52" type="line"/>
      <point x="78" y="257" type="line"/>
      <point x="197" y="257" type="line"/>
    </contour>
  </outline>
</glyph>
<glyph name="less" format="2">
  <advance width="353"/>
  <unicode hex="003C"/>
  <outline>
    <contour>
      <point x="471" y="612" type="line"/>
      <point x="426" y="442" type="line"/>
      <point x="253" y="345" type="line"/>
      <point x="391" y="243" type="line"/>
      <point x="354" y="107" type="line"/>
      <point x="102" y="322" type="line"/>
      <point x="116" y="423" type="line"/>
    </contour>
  </outline>
</glyph>
<glyph name="equal" format="2">
  <advance width="433"/>
  <unicode hex="003D"/>
  <outline>
    <contour>
      <point x="72" y="200" type="line"/>
      <point x="98" y="320" type="line"/>
      <point x="488" y="320" type="line"/>
      <point x="462" y="200" type="line"/>
    </contour>
    <contour>
      <point x="109" y="379" type="line"/>
      <point x="135" y="499" type="line"/>
      <point x="525" y="499" type="line"/>
      <point x="499" y="379" type="line"/>
    </contour>
  </outline>
</glyph>
<glyph name="greater" format="2">
  <advance width="353"/>
  <unicode hex="003E"/>
  <outline>
    <contour>
      <point x="56" y="110" type="line"/>
      <point x="101" y="280" type="line"/>
      <point x="274" y="377" type="line"/>
      <point x="136" y="479" type="line"/>
      <point x="173" y="615" type="line"/>
      <point x="425" y="400" type="line"/>
      <point x="411" y="299" type="line"/>
    </contour>
  </outline>
</glyph>
<glyph name="question" format="2">
  <advance width="452"/>
  <unicode hex="003F"/>
  <outline>
    <contour>
      <point x="256" y="693" type="line"/>
      <point x="485" y="693" type="line"/>
      <point x="545" y="564" type="line"/>
      <point x="517" y="432" type="line"/>
      <point x="404" y="315" type="line"/>
      <point x="341" y="315" type="line"/>
      <point x="307" y="278" type="line"/>
      <point x="285" y="175" type="line"/>
      <point x="166" y="175" type="line"/>
      <point x="196" y="317" type="line"/>
      <point x="310" y="433" type="line"/>
      <point x="372" y="433" type="line"/>
      <point x="408" y="471" type="line"/>
      <point x="420" y="528" type="line"/>
      <point x="402" y="575" type="line"/>
      <point x="289" y="575" type="line"/>
      <point x="252" y="528" type="line"/>
      <point x="239" y="466" type="line"/>
      <point x="120" y="466" type="line"/>
      <point x="140" y="564" type="line"/>
    </contour>
    <contour>
      <point x="157" y="136" type="line"/>
      <point x="276" y="136" type="line"/>
      <point x="251" y="17" type="line"/>
      <point x="132" y="17" type="line"/>
    </contour>
  </outline>
</glyph>
<glyph name="at" format="2">
  <advance width="697"/>
  <unicode hex="0040"/>
  <outline>
    <contour>
      <point x="586" y="112" type="line"/>
      <point x="606" y="205" type="line"/>
      <point x="545" y="205" type="line"/>
      <point x="482" y="137" type="line"/>
      <point x="283" y="137" type="line"/>
      <point x="234" y="248" type="line"/>
      <point x="275" y="441" type="line"/>
      <point x="371" y="547" type="line"/>
      <point x="638" y="547" type="line"/>
      <point x="591" y="322" type="line"/>
      <point x="750" y="322" type="line"/>
      <point x="698" y="78" type="line"/>
      <point x="581" y="-57" type="line"/>
      <point x="95" y="-57" type="line"/>
      <point x="35" y="78" type="line"/>
      <point x="147" y="609" type="line"/>
      <point x="264" y="738" type="line"/>
      <point x="750" y="738" type="line"/>
      <point x="810" y="609" type="line"/>
      <point x="760" y="370" type="line"/>
      <point x="641" y="370" type="line"/>
      <point x="684" y="573" type="line"/>
      <point x="667" y="620" type="line"/>
      <point x="296" y="620" type="line"/>
      <point x="260" y="573" type="line"/>
      <point x="162" y="112" type="line"/>
      <point x="178" y="63" type="line"/>
      <point x="549" y="63" type="line"/>
    </contour>
    <contour>
      <point x="507" y="444" type="line"/>
      <point x="417" y="444" type="line"/>
      <point x="386" y="412" type="line"/>
      <point x="356" y="276" type="line"/>
      <point x="370" y="247" type="line"/>
      <point x="438" y="247" type="line"/>
      <point x="468" y="276" type="line"/>
    </contour>
  </outline>
</glyph>
<glyph name="G" format="2">
  <advance width="452"/>
  <unicode hex="0047"/>
  <outline>
    <contour>
      <point x="258" y="693" type="line"/>
      <point x="485" y="693" type="line"/>
      <point x="545" y="564" type="line"/>
      <point x="525" y="467" type="line"/>
      <point x="408" y="467" type="line"/>
      <point x="421" y="528" type="line"/>
      <point x="415" y="536"/>
      <point x="405" y="567"/>
      <point x="401" y="575" type="qcurve"/>
      <point x="289" y="575" type="line"/>
      <point x="252" y="528" type="line"/>
      <point x="179" y="186" type="line"/>
      <point x="196" y="137" type="line"/>
      <point x="338" y="137" type="line"/>
      <point x="364" y="259" type="line"/>
      <point x="271" y="259" type="line"/>
      <point x="296" y="379" type="line"/>
      <point x="506" y="379" type="line"/>
      <point x="429" y="17" type="line"/>
      <point x="114" y="17" type="line"/>
      <point x="53" y="152" type="line"/>
      <point x="140" y="564" type="line"/>
    </contour>
  </outline>
</glyph>
<glyph name="H" format="2">
  <advance width="468"/>
  <unicode hex="0048"/>
  <outline>
    <contour>
      <point x="414" y="434" type="line"/>
      <point x="469" y="694" type="line"/>
      <point x="588" y="694" type="line"/>
      <point x="444" y="17" type="line"/>
      <point x="325" y="17" type="line"/>
      <point x="389" y="316" type="line"/>
      <point x="212" y="316" type="line"/>
      <point x="184" y="186" type="line"/>
      <point x="186" y="182"/>
      <point x="191" y="168"/>
      <point x="195" y="153"/>
      <point x="199" y="140"/>
      <point x="202" y="137" type="qcurve"/>
      <point x="299" y="137" type="line"/>
      <point x="273" y="17" type="line"/>
      <point x="119" y="17" type="line"/>
      <point x="58" y="152" type="line"/>
      <point x="173" y="694" type="line"/>
      <point x="292" y="694" type="line"/>
      <point x="237" y="434" type="line"/>
    </contour>
  </outline>
</glyph>
<glyph name="I" format="2">
  <advance width="278"/>
  <unicode hex="0049"/>
  <outline>
    <contour>
      <point x="182" y="186" type="line"/>
      <point x="200" y="137" type="line"/>
      <point x="298" y="137" type="line"/>
      <point x="272" y="17" type="line"/>
      <point x="116" y="17" type="line"/>
      <point x="57" y="152" type="line"/>
      <point x="172" y="693" type="line"/>
      <point x="290" y="693" type="line"/>
    </contour>
  </outline>
</glyph>
<glyph name="K" format="2">
  <advance width="469"/>
  <unicode hex="004B"/>
  <outline>
    <contour>
      <point x="421" y="471" type="line"/>
      <point x="468" y="693" type="line"/>
      <point x="587" y="693" type="line"/>
      <point x="531" y="432" type="line"/>
      <point x="475" y="375" type="line"/>
      <point x="483" y="361"/>
      <point x="500" y="331"/>
      <point x="507" y="317" type="qcurve"/>
      <point x="443" y="17" type="line"/>
      <point x="324" y="17" type="line"/>
      <point x="380" y="278" type="line"/>
      <point x="360" y="315" type="line"/>
      <point x="211" y="315" type="line"/>
      <point x="184" y="186" type="line"/>
      <point x="201" y="137" type="line"/>
      <point x="298" y="137" type="line"/>
      <point x="272" y="17" type="line"/>
      <point x="117" y="17" type="line"/>
      <point x="58" y="152" type="line"/>
      <point x="173" y="693" type="line"/>
      <point x="292" y="693" type="line"/>
      <point x="237" y="433" type="line"/>
      <point x="385" y="433" type="line"/>
    </contour>
  </outline>
</glyph>
<glyph name="L" format="2">
  <advance width="460"/>
  <unicode hex="004C"/>
  <outline>
    <contour>
      <point x="365" y="258" type="line"/>
      <point x="497" y="258" type="line"/>
      <point x="472" y="139" type="line"/>
      <point x="408" y="139" type="line"/>
      <point x="384" y="107"/>
      <point x="337" y="48"/>
      <point x="313" y="17" type="qcurve"/>
      <point x="117" y="17" type="line"/>
      <point x="58" y="152" type="line"/>
      <point x="173" y="694" type="line"/>
      <point x="292" y="694" type="line"/>
      <point x="184" y="186" type="line"/>
      <point x="201" y="137" type="line"/>
      <point x="270" y="137" type="line"/>
    </contour>
  </outline>
</glyph>
<glyph name="O" format="2">
  <advance width="472"/>
  <unicode hex="004F"/>
  <outline>
    <contour>
      <point x="263" y="693" type="line"/>
      <point x="504" y="693" type="line"/>
      <point x="564" y="564" type="line"/>
      <point x="477" y="152" type="line"/>
      <point x="360" y="17" type="line"/>
      <point x="119" y="17" type="line"/>
      <point x="59" y="152" type="line"/>
      <point x="146" y="564" type="line"/>
    </contour>
    <contour>
      <point x="365" y="186" type="line"/>
      <point x="438" y="528" type="line"/>
      <point x="421" y="575" type="line"/>
      <point x="295" y="575" type="line"/>
      <point x="259" y="528" type="line"/>
      <point x="186" y="186" type="line"/>
      <point x="202" y="137" type="line"/>
      <point x="328" y="137" type="line"/>
    </contour>
  </outline>
</glyph>
<glyph name="P" format="2">
  <advance width="433"/>
  <unicode hex="0050"/>
  <outline>
    <contour>
      <point x="169" y="693" type="line"/>
      <point x="481" y="693" type="line"/>
      <point x="544" y="577" type="line"/>
      <point x="513" y="432" type="line"/>
      <point x="401" y="316" type="line"/>
      <point x="208" y="316" type="line"/>
      <point x="180" y="186" type="line"/>
      <point x="197" y="137" type="line"/>
      <point x="295" y="137" type="line"/>
      <point x="269" y="17" type="line"/>
      <point x="113" y="17" type="line"/>
      <point x="54" y="152" type="line"/>
    </contour>
    <contour>
      <point x="404" y="472" type="line"/>
      <point x="418" y="537" type="line"/>
      <point x="398" y="575" type="line"/>
      <point x="263" y="575" type="line"/>
      <point x="233" y="434" type="line"/>
      <point x="368" y="434" type="line"/>
    </contour>
  </outline>
</glyph>
<glyph name="Q" format="2">
  <advance width="477"/>
  <unicode hex="0051"/>
  <outline>
    <contour>
      <point x="286" y="-53" type="line"/>
      <point x="167" y="-51" type="line"/>
      <point x="181" y="17" type="line"/>
      <point x="115" y="17" type="line"/>
      <point x="54" y="152" type="line"/>
      <point x="141" y="564" type="line"/>
      <point x="259" y="693" type="line"/>
      <point x="510" y="693" type="line"/>
      <point x="572" y="564" type="line"/>
      <point x="485" y="152" type="line"/>
      <point x="366" y="17" type="line"/>
      <point x="301" y="17" type="line"/>
    </contour>
    <contour>
      <point x="207" y="137" type="line"/>
      <point x="220" y="201" type="line"/>
      <point x="340" y="201" type="line"/>
      <point x="327" y="137" type="line"/>
      <point x="334" y="137" type="line"/>
      <point x="337" y="140"/>
      <point x="348" y="153"/>
      <point x="359" y="168"/>
      <point x="369" y="182"/>
      <point x="373" y="186" type="qcurve"/>
      <point x="446" y="528" type="line"/>
      <point x="440" y="536"/>
      <point x="431" y="567"/>
      <point x="427" y="575" type="qcurve"/>
      <point x="292" y="575" type="line"/>
      <point x="284" y="567"/>
      <point x="260" y="536"/>
      <point x="253" y="528" type="qcurve"/>
      <point x="180" y="186" type="line"/>
      <point x="182" y="182"/>
      <point x="187" y="168"/>
      <point x="192" y="153"/>
      <point x="196" y="140"/>
      <point x="199" y="137" type="qcurve"/>
    </contour>
  </outline>
</glyph>
<glyph name="T" format="2">
  <advance width="493"/>
  <unicode hex="0054"/>
  <outline>
    <contour>
      <point x="156" y="694" type="line"/>
      <point x="628" y="694" type="line"/>
      <point x="580" y="467" type="line"/>
      <point x="461" y="467" type="line"/>
      <point x="484" y="575" type="line"/>
      <point x="431" y="575" type="line"/>
      <point x="348" y="186" type="line"/>
      <point x="353" y="177"/>
      <point x="361" y="145"/>
      <point x="367" y="137" type="qcurve"/>
      <point x="462" y="137" type="line"/>
      <point x="436" y="17" type="line"/>
      <point x="282" y="17" type="line"/>
      <point x="221" y="152" type="line"/>
      <point x="311" y="575" type="line"/>
      <point x="250" y="575" type="line"/>
      <point x="227" y="467" type="line"/>
      <point x="108" y="467" type="line"/>
    </contour>
  </outline>
</glyph>
<glyph name="U" format="2">
  <advance width="457"/>
  <unicode hex="0055"/>
  <outline>
    <contour>
      <point x="351" y="186" type="line"/>
      <point x="459" y="693" type="line"/>
      <point x="577" y="693" type="line"/>
      <point x="462" y="152" type="line"/>
      <point x="345" y="17" type="line"/>
      <point x="116" y="17" type="line"/>
      <point x="57" y="152" type="line"/>
      <point x="172" y="693" type="line"/>
      <point x="291" y="693" type="line"/>
      <point x="183" y="186" type="line"/>
      <point x="200" y="137" type="line"/>
      <point x="313" y="137" type="line"/>
    </contour>
  </outline>
</glyph>
<glyph name="V" format="2">
  <advance width="428"/>
  <unicode hex="0056"/>
  <outline>
    <contour>
      <point x="359" y="339" type="line"/>
      <point x="434" y="693" type="line"/>
      <point x="554" y="693" type="line"/>
      <point x="479" y="339" type="line"/>
      <point x="478" y="338"/>
      <point x="454" y="293"/>
      <point x="416" y="225"/>
      <point x="374" y="146"/>
      <point x="334" y="75"/>
      <point x="305" y="23"/>
      <point x="302" y="17" type="qcurve"/>
      <point x="132" y="17" type="line"/>
      <point x="93" y="338" type="line"/>
      <point x="169" y="693" type="line"/>
      <point x="288" y="693" type="line"/>
      <point x="213" y="339" type="line"/>
      <point x="243" y="140" type="line"/>
    </contour>
  </outline>
</glyph>
<glyph name="W" format="2">
  <advance width="690"/>
  <unicode hex="0057"/>
  <outline>
    <contour>
      <point x="614" y="311" type="line"/>
      <point x="695" y="693" type="line"/>
      <point x="813" y="693" type="line"/>
      <point x="727" y="290" type="line"/>
      <point x="727" y="289"/>
      <point x="704" y="251"/>
      <point x="670" y="194"/>
      <point x="629" y="128"/>
      <point x="592" y="68"/>
      <point x="565" y="23"/>
      <point x="562" y="17" type="qcurve"/>
      <point x="392" y="17" type="line"/>
      <point x="376" y="161" type="line"/>
      <point x="356" y="125"/>
      <point x="316" y="52"/>
      <point x="297" y="17" type="qcurve"/>
      <point x="128" y="17" type="line"/>
      <point x="79" y="289" type="line"/>
      <point x="165" y="693" type="line"/>
      <point x="282" y="693" type="line"/>
      <point x="201" y="311" type="line"/>
      <point x="239" y="142" type="line"/>
      <point x="350" y="322" type="line"/>
      <point x="429" y="693" type="line"/>
      <point x="546" y="693" type="line"/>
      <point x="467" y="323" type="line"/>
      <point x="503" y="140" type="line"/>
    </contour>
  </outline>
</glyph>
<glyph name="X" format="2">
  <advance width="462"/>
  <unicode hex="0058"/>
  <outline>
    <contour>
      <point x="466" y="693" type="line"/>
      <point x="584" y="693" type="line"/>
      <point x="528" y="432" type="line"/>
      <point x="472" y="375" type="line"/>
      <point x="480" y="361"/>
      <point x="497" y="331"/>
      <point x="504" y="317" type="qcurve"/>
      <point x="440" y="17" type="line"/>
      <point x="322" y="17" type="line"/>
      <point x="378" y="279" type="line"/>
      <point x="358" y="316" type="line"/>
      <point x="236" y="316" type="line"/>
      <point x="201" y="279" type="line"/>
      <point x="181" y="186" type="line"/>
      <point x="198" y="137" type="line"/>
      <point x="295" y="137" type="line"/>
      <point x="269" y="17" type="line"/>
      <point x="114" y="17" type="line"/>
      <point x="55" y="152" type="line"/>
      <point x="90" y="317" type="line"/>
      <point x="146" y="375" type="line"/>
      <point x="114" y="432" type="line"/>
      <point x="170" y="693" type="line"/>
      <point x="289" y="693" type="line"/>
      <point x="242" y="472" type="line"/>
      <point x="261" y="434" type="line"/>
      <point x="383" y="434" type="line"/>
      <point x="419" y="472" type="line"/>
    </contour>
  </outline>
</glyph>
<glyph name="bracketleft" format="2">
  <advance width="195"/>
  <unicode hex="005B"/>
  <outline>
    <contour>
      <point x="222" y="870" type="line"/>
      <point x="446" y="870" type="line"/>
      <point x="416" y="744" type="line"/>
      <point x="312" y="744" type="line"/>
      <point x="148" y="-31" type="line"/>
      <point x="259" y="-31" type="line"/>
      <point x="230" y="-160" type="line"/>
      <point x="-5" y="-160" type="line"/>
    </contour>
  </outline>
</glyph>
<glyph name="backslash" format="2">
  <advance width="559"/>
  <unicode hex="005C"/>
  <outline>
    <contour>
      <point x="422" y="17" type="line"/>
      <point x="140" y="693" type="line"/>
      <point x="281" y="693" type="line"/>
      <point x="563" y="17" type="line"/>
    </contour>
  </outline>
</glyph>
<glyph name="bracketright" format="2">
  <advance width="177"/>
  <unicode hex="005D"/>
  <outline>
    <contour>
      <point x="103" y="-160" type="line"/>
      <point x="-121" y="-160" type="line"/>
      <point x="-91" y="-34" type="line"/>
      <point x="13" y="-34" type="line"/>
      <point x="177" y="741" type="line"/>
      <point x="66" y="741" type="line"/>
      <point x="95" y="870" type="line"/>
      <point x="330" y="870" type="line"/>
    </contour>
  </outline>
</glyph>
<glyph name="underscore" format="2">
  <advance width="540"/>
  <unicode hex="005F"/>
  <outline>
    <contour>
      <point x="12" y="-124" type="line"/>
      <point x="38" y="-4" type="line"/>
      <point x="505" y="-4" type="line"/>
      <point x="479" y="-124" type="line"/>
    </contour>
  </outline>
</glyph>
<glyph name="a" format="2">
  <advance width="460"/>
  <unicode hex="0061"/>
  <outline>
    <contour>
      <point x="254" y="691" type="line"/>
      <point x="490" y="691" type="line"/>
      <point x="553" y="564" type="line"/>
      <point x="437" y="17" type="line"/>
      <point x="319" y="17" type="line"/>
      <point x="382" y="314" type="line"/>
      <point x="205" y="314" type="line"/>
      <point x="178" y="186" type="line"/>
      <point x="194" y="136" type="line"/>
      <point x="292" y="136" type="line"/>
      <point x="267" y="17" type="line"/>
      <point x="111" y="17" type="line"/>
      <point x="53" y="152" type="line"/>
      <point x="140" y="564" type="line"/>
    </contour>
    <contour>
      <point x="408" y="433" type="line"/>
      <point x="428" y="528" type="line"/>
      <point x="407" y="573" type="line"/>
      <point x="288" y="573" type="line"/>
      <point x="279" y="564"/>
      <point x="259" y="537"/>
      <point x="251" y="528" type="qcurve"/>
      <point x="231" y="433" type="line"/>
    </contour>
  </outline>
</glyph>
<glyph name="b" format="2">
  <advance width="446"/>
  <unicode hex="0062"/>
  <outline>
    <contour>
      <point x="173" y="693" type="line"/>
      <point x="494" y="693" type="line"/>
      <point x="554" y="564" type="line"/>
      <point x="526" y="432" type="line"/>
      <point x="470" y="375" type="line"/>
      <point x="478" y="361"/>
      <point x="495" y="331"/>
      <point x="502" y="317" type="qcurve"/>
      <point x="467" y="152" type="line"/>
      <point x="350" y="17" type="line"/>
      <point x="117" y="17" type="line"/>
      <point x="58" y="152" type="line"/>
    </contour>
    <contour>
      <point x="356" y="186" type="line"/>
      <point x="376" y="279" type="line"/>
      <point x="371" y="287"/>
      <point x="360" y="306"/>
      <point x="355" y="316" type="qcurve"/>
      <point x="212" y="316" type="line"/>
      <point x="184" y="186" type="line"/>
      <point x="201" y="137" type="line"/>
      <point x="318" y="137" type="line"/>
    </contour>
    <contour>
      <point x="417" y="472" type="line"/>
      <point x="429" y="528" type="line"/>
      <point x="411" y="575" type="line"/>
      <point x="267" y="575" type="line"/>
      <point x="237" y="434" type="line"/>
      <point x="381" y="434" type="line"/>
    </contour>
  </outline>
</glyph>
<glyph name="c" format="2">
  <advance width="460"/>
  <unicode hex="0063"/>
  <outline>
    <contour>
      <point x="261" y="693" type="line"/>
      <point x="502" y="693" type="line"/>
      <point x="562" y="564" type="line"/>
      <point x="542" y="467" type="line"/>
      <point x="423" y="467" type="line"/>
      <point x="436" y="528" type="line"/>
      <point x="419" y="575" type="line"/>
      <point x="294" y="575" type="line"/>
      <point x="257" y="528" type="line"/>
      <point x="184" y="186" type="line"/>
      <point x="201" y="137" type="line"/>
      <point x="326" y="137" type="line"/>
      <point x="363" y="186" type="line"/>
      <point x="375" y="243" type="line"/>
      <point x="494" y="243" type="line"/>
      <point x="475" y="152" type="line"/>
      <point x="358" y="17" type="line"/>
      <point x="117" y="17" type="line"/>
      <point x="58" y="152" type="line"/>
      <point x="145" y="564" type="line"/>
    </contour>
  </outline>
</glyph>
<glyph name="d" format="2">
  <advance width="472"/>
  <unicode hex="0064"/>
  <outline>
    <contour>
      <point x="179" y="694" type="line"/>
      <point x="497" y="694" type="line"/>
      <point x="557" y="564" type="line"/>
      <point x="470" y="152" type="line"/>
      <point x="353" y="17" type="line"/>
      <point x="124" y="17" type="line"/>
      <point x="64" y="152" type="line"/>
    </contour>
    <contour>
      <point x="359" y="186" type="line"/>
      <point x="432" y="528" type="line"/>
      <point x="427" y="537"/>
      <point x="418" y="566"/>
      <point x="413" y="575" type="qcurve"/>
      <point x="274" y="575" type="line"/>
      <point x="191" y="186" type="line"/>
      <point x="207" y="137" type="line"/>
      <point x="321" y="137" type="line"/>
    </contour>
  </outline>
</glyph>
<glyph name="e" format="2">
  <advance width="477"/>
  <unicode hex="0065"/>
  <outline>
    <contour>
      <point x="381" y="258" type="line"/>
      <point x="516" y="258" type="line"/>
      <point x="492" y="142" type="line"/>
      <point x="428" y="142" type="line"/>
      <point x="331" y="17" type="line"/>
      <point x="120" y="17" type="line"/>
      <point x="58" y="152" type="line"/>
      <point x="173" y="693" type="line"/>
      <point x="561" y="693" type="line"/>
      <point x="536" y="575" type="line"/>
      <point x="268" y="575" type="line"/>
      <point x="238" y="434" type="line"/>
      <point x="417" y="434" type="line"/>
      <point x="392" y="316" type="line"/>
      <point x="213" y="316" type="line"/>
      <point x="185" y="186" type="line"/>
      <point x="202" y="137" type="line"/>
      <point x="287" y="137" type="line"/>
    </contour>
  </outline>
</glyph>
<glyph name="f" format="2">
  <advance width="387"/>
  <unicode hex="0066"/>
  <outline>
    <contour>
      <point x="172" y="693" type="line"/>
      <point x="520" y="693" type="line"/>
      <point x="495" y="575" type="line"/>
      <point x="266" y="575" type="line"/>
      <point x="236" y="433" type="line"/>
      <point x="414" y="433" type="line"/>
      <point x="388" y="315" type="line"/>
      <point x="210" y="315" type="line"/>
      <point x="183" y="186" type="line"/>
      <point x="200" y="137" type="line"/>
      <point x="298" y="137" type="line"/>
      <point x="272" y="17" type="line"/>
      <point x="116" y="17" type="line"/>
      <point x="57" y="152" type="line"/>
    </contour>
  </outline>
</glyph>
<glyph name="j" format="2">
  <advance width="296"/>
  <unicode hex="006A"/>
  <outline>
    <contour>
      <point x="296" y="694" type="line"/>
      <point x="416" y="694" type="line"/>
      <point x="301" y="152" type="line"/>
      <point x="181" y="17" type="line"/>
      <point x="28" y="17" type="line"/>
      <point x="54" y="137" type="line"/>
      <point x="149" y="137" type="line"/>
      <point x="188" y="186" type="line"/>
    </contour>
  </outline>
</glyph>
<glyph name="m" format="2">
  <advance width="597"/>
  <unicode hex="006D"/>
  <outline>
    <contour>
      <point x="576" y="693" type="line"/>
      <point x="713" y="693" type="line"/>
      <point x="569" y="17" type="line"/>
      <point x="451" y="17" type="line"/>
      <point x="554" y="499" type="line"/>
      <point x="365" y="274" type="line"/>
      <point x="341" y="274" type="line"/>
      <point x="249" y="499" type="line"/>
      <point x="182" y="186" type="line"/>
      <point x="200" y="137" type="line"/>
      <point x="298" y="137" type="line"/>
      <point x="272" y="17" type="line"/>
      <point x="115" y="17" type="line"/>
      <point x="56" y="152" type="line"/>
      <point x="171" y="693" type="line"/>
      <point x="309" y="693" type="line"/>
      <point x="397" y="481" type="line"/>
    </contour>
  </outline>
</glyph>
<glyph name="n" format="2">
  <advance width="537"/>
  <unicode hex="006E"/>
  <outline>
    <contour>
      <point x="437" y="254" type="line"/>
      <point x="531" y="694" type="line"/>
      <point x="651" y="694" type="line"/>
      <point x="507" y="17" type="line"/>
      <point x="371" y="17" type="line"/>
      <point x="244" y="464" type="line"/>
      <point x="185" y="186" type="line"/>
      <point x="202" y="137" type="line"/>
      <point x="300" y="137" type="line"/>
      <point x="274" y="17" type="line"/>
      <point x="118" y="17" type="line"/>
      <point x="58" y="152" type="line"/>
      <point x="173" y="694" type="line"/>
      <point x="313" y="694" type="line"/>
    </contour>
  </outline>
</glyph>
<glyph name="r" format="2">
  <advance width="469"/>
  <unicode hex="0072"/>
  <outline>
    <contour>
      <point x="175" y="693" type="line"/>
      <point x="501" y="693" type="line"/>
      <point x="563" y="564" type="line"/>
      <point x="535" y="432" type="line"/>
      <point x="479" y="375" type="line"/>
      <point x="487" y="361"/>
      <point x="504" y="331"/>
      <point x="511" y="317" type="qcurve"/>
      <point x="447" y="17" type="line"/>
      <point x="328" y="17" type="line"/>
      <point x="384" y="280" type="line"/>
      <point x="380" y="288"/>
      <point x="367" y="308"/>
      <point x="363" y="316" type="qcurve"/>
      <point x="215" y="316" type="line"/>
      <point x="187" y="185" type="line"/>
      <point x="203" y="137" type="line"/>
      <point x="300" y="137" type="line"/>
      <point x="274" y="17" type="line"/>
      <point x="120" y="17" type="line"/>
      <point x="60" y="152" type="line"/>
    </contour>
    <contour>
      <point x="425" y="471" type="line"/>
      <point x="437" y="528" type="line"/>
      <point x="432" y="536"/>
      <point x="422" y="567"/>
      <point x="418" y="575" type="qcurve"/>
      <point x="270" y="575" type="line"/>
      <point x="240" y="434" type="line"/>
      <point x="388" y="434" type="line"/>
    </contour>
  </outline>
</glyph>
<glyph name="s" format="2">
  <advance width="457"/>
  <unicode hex="0073"/>
  <outline>
    <contour>
      <point x="489" y="693" type="line"/>
      <point x="549" y="564" type="line"/>
      <point x="529" y="467" type="line"/>
      <point x="411" y="467" type="line"/>
      <point x="424" y="528" type="line"/>
      <point x="406" y="575" type="line"/>
      <point x="293" y="575" type="line"/>
      <point x="256" y="528" type="line"/>
      <point x="244" y="472" type="line"/>
      <point x="263" y="434" type="line"/>
      <point x="434" y="434" type="line"/>
      <point x="497" y="317" type="line"/>
      <point x="462" y="152" type="line"/>
      <point x="345" y="17" type="line"/>
      <point x="116" y="17" type="line"/>
      <point x="57" y="152" type="line"/>
      <point x="76" y="243" type="line"/>
      <point x="195" y="243" type="line"/>
      <point x="183" y="186" type="line"/>
      <point x="200" y="137" type="line"/>
      <point x="313" y="137" type="line"/>
      <point x="351" y="186" type="line"/>
      <point x="371" y="279" type="line"/>
      <point x="350" y="316" type="line"/>
      <point x="180" y="316" type="line"/>
      <point x="116" y="432" type="line"/>
      <point x="144" y="564" type="line"/>
      <point x="260" y="693" type="line"/>
    </contour>
  </outline>
</glyph>
<glyph name="y" format="2">
  <advance width="416"/>
  <unicode hex="0079"/>
  <outline>
    <contour>
      <point x="375" y="471" type="line"/>
      <point x="422" y="693" type="line"/>
      <point x="542" y="693" type="line"/>
      <point x="486" y="432" type="line"/>
      <point x="371" y="315" type="line"/>
      <point x="333" y="315" type="line"/>
      <point x="270" y="17" type="line"/>
      <point x="151" y="17" type="line"/>
      <point x="214" y="315" type="line"/>
      <point x="176" y="315" type="line"/>
      <point x="113" y="432" type="line"/>
      <point x="169" y="693" type="line"/>
      <point x="288" y="693" type="line"/>
      <point x="241" y="471" type="line"/>
      <point x="245" y="462"/>
      <point x="256" y="443"/>
      <point x="261" y="433" type="qcurve"/>
      <point x="338" y="433" type="line"/>
    </contour>
  </outline>
</glyph>
<glyph name="z" format="2">
  <advance width="480"/>
  <unicode hex="007A"/>
  <outline>
    <contour>
      <point x="375" y="258" type="line"/>
      <point x="509" y="258" type="line"/>
      <point x="484" y="139" type="line"/>
      <point x="420" y="139" type="line"/>
      <point x="396" y="107"/>
      <point x="348" y="48"/>
      <point x="324" y="17" type="qcurve"/>
      <point x="27" y="17" type="line"/>
      <point x="52" y="133" type="line"/>
      <point x="399" y="575" type="line"/>
      <point x="146" y="575" type="line"/>
      <point x="171" y="694" type="line"/>
      <point x="564" y="694" type="line"/>
      <point x="540" y="579" type="line"/>
      <point x="192" y="137" type="line"/>
      <point x="280" y="137" type="line"/>
    </contour>
  </outline>
</glyph>
<glyph name="braceleft" format="2">
  <advance width="241"/>
  <unicode hex="007B"/>
  <outline>
    <contour>
      <point x="79" y="314" type="line"/>
      <point x="105" y="434" type="line"/>
      <point x="186" y="434" type="line"/>
      <point x="246" y="709" type="line"/>
      <point x="366" y="844" type="line"/>
      <point x="519" y="844" type="line"/>
      <point x="493" y="724" type="line"/>
      <point x="398" y="724" type="line"/>
      <point x="359" y="675" type="line"/>
      <point x="211" y="1" type="line"/>
      <point x="227" y="-42" type="line"/>
      <point x="318" y="-42" type="line"/>
      <point x="291" y="-160" type="line"/>
      <point x="144" y="-160" type="line"/>
      <point x="83" y="-35" type="line"/>
      <point x="159" y="314" type="line"/>
    </contour>
  </outline>
</glyph>
<glyph name="bar" format="2">
  <advance width="318"/>
  <unicode hex="007C"/>
  <outline>
    <contour>
      <point x="206" y="761" type="line"/>
      <point x="302" y="761" type="line"/>
      <point x="129" y="-45" type="line"/>
      <point x="35" y="-45" type="line"/>
    </contour>
  </outline>
</glyph>
<glyph name="braceright" format="2">
  <advance width="250"/>
  <unicode hex="007D"/>
  <outline>
    <contour>
      <point x="151" y="-25" type="line"/>
      <point x="31" y="-160" type="line"/>
      <point x="-122" y="-160" type="line"/>
      <point x="-96" y="-40" type="line"/>
      <point x="-1" y="-40" type="line"/>
      <point x="38" y="9" type="line"/>
      <point x="186" y="683" type="line"/>
      <point x="170" y="726" type="line"/>
      <point x="79" y="726" type="line"/>
      <point x="106" y="844" type="line"/>
      <point x="253" y="844" type="line"/>
      <point x="314" y="719" type="line"/>
      <point x="251" y="434" type="line"/>
      <point x="330" y="434" type="line"/>
      <point x="304" y="314" type="line"/>
      <point x="225" y="314" type="line"/>
    </contour>
  </outline>
</glyph>
<glyph name="asciitilde" format="2">
  <advance width="458"/>
  <unicode hex="007E"/>
  <outline>
    <contour>
      <point x="215" y="341" type="line"/>
      <point x="84" y="243" type="line"/>
      <point x="121" y="381" type="line"/>
      <point x="222" y="477" type="line"/>
      <point x="336" y="381" type="line"/>
      <point x="453" y="465" type="line"/>
      <point x="519" y="361" type="line"/>
      <point x="315" y="243" type="line"/>
    </contour>
  </outline>
</glyph>
<glyph name="exclamdown" format="2">
  <advance width="170"/>
  <unicode hex="00A1"/>
  <outline>
    <contour>
      <point x="265" y="574" type="line"/>
      <point x="146" y="574" type="line"/>
      <point x="172" y="694" type="line"/>
      <point x="291" y="694" type="line"/>
    </contour>
    <contour>
      <point x="147" y="17" type="line"/>
      <point x="28" y="17" type="line"/>
      <point x="138" y="535" type="line"/>
      <point x="257" y="535" type="line"/>
    </contour>
  </outline>
</glyph>
<glyph name="cent" format="2">
  <advance width="460"/>
  <unicode hex="00A2"/>
  <outline>
    <contour>
      <point x="261" y="693" type="line"/>
      <point x="329" y="693" type="line"/>
      <point x="344" y="761" type="line"/>
      <point x="440" y="761" type="line"/>
      <point x="425" y="693" type="line"/>
      <point x="502" y="693" type="line"/>
      <point x="562" y="564" type="line"/>
      <point x="542" y="467" type="line"/>
      <point x="423" y="467" type="line"/>
      <point x="436" y="528" type="line"/>
      <point x="419" y="575" type="line"/>
      <point x="400" y="575" type="line"/>
      <point x="306" y="137" type="line"/>
      <point x="326" y="137" type="line"/>
      <point x="363" y="186" type="line"/>
      <point x="375" y="243" type="line"/>
      <point x="494" y="243" type="line"/>
      <point x="475" y="152" type="line"/>
      <point x="358" y="17" type="line"/>
      <point x="280" y="17" type="line"/>
      <point x="267" y="-45" type="line"/>
      <point x="173" y="-45" type="line"/>
      <point x="186" y="17" type="line"/>
      <point x="117" y="17" type="line"/>
      <point x="58" y="152" type="line"/>
      <point x="145" y="564" type="line"/>
    </contour>
    <contour>
      <point x="257" y="528" type="line"/>
      <point x="184" y="186" type="line"/>
      <point x="201" y="137" type="line"/>
      <point x="211" y="137" type="line"/>
      <point x="304" y="575" type="line"/>
      <point x="294" y="575" type="line"/>
    </contour>
  </outline>
</glyph>
<glyph name="sterling" format="2">
  <advance width="495"/>
  <unicode hex="00A3"/>
  <outline>
    <contour>
      <point x="117" y="512" type="line"/>
      <point x="143" y="632" type="line"/>
      <point x="201" y="632" type="line"/>
      <point x="214" y="694" type="line"/>
      <point x="333" y="694" type="line"/>
      <point x="320" y="632" type="line"/>
      <point x="425" y="632" type="line"/>
      <point x="399" y="512" type="line"/>
      <point x="294" y="512" type="line"/>
      <point x="225" y="186" type="line"/>
      <point x="242" y="137" type="line"/>
      <point x="311" y="137" type="line"/>
      <point x="406" y="258" type="line"/>
      <point x="538" y="258" type="line"/>
      <point x="513" y="139" type="line"/>
      <point x="449" y="139" type="line"/>
      <point x="425" y="107"/>
      <point x="378" y="48"/>
      <point x="354" y="17" type="qcurve"/>
      <point x="158" y="17" type="line"/>
      <point x="99" y="152" type="line"/>
      <point x="175" y="512" type="line"/>
    </contour>
  </outline>
</glyph>
<glyph name="currency" format="2">
  <advance width="681"/>
  <unicode hex="00A4"/>
  <outline>
    <contour>
      <point x="742" y="17" type="line"/>
      <point x="596" y="17" type="line"/>
      <point x="483" y="125" type="line"/>
      <point x="327" y="125" type="line"/>
      <point x="214" y="17" type="line"/>
      <point x="68" y="17" type="line"/>
      <point x="258" y="233" type="line"/>
      <point x="246" y="260" type="line"/>
      <point x="291" y="459" type="line"/>
      <point x="319" y="490" type="line"/>
      <point x="140" y="693" type="line"/>
      <point x="286" y="693" type="line"/>
      <point x="402" y="582" type="line"/>
      <point x="408" y="588" type="line"/>
      <point x="558" y="588" type="line"/>
      <point x="668" y="693" type="line"/>
      <point x="814" y="693" type="line"/>
      <point x="674" y="534" type="line"/>
      <point x="709" y="459" type="line"/>
      <point x="664" y="260" type="line"/>
      <point x="596" y="182" type="line"/>
    </contour>
    <contour>
      <point x="552" y="294" type="line"/>
      <point x="583" y="423" type="line"/>
      <point x="566" y="470" type="line"/>
      <point x="440" y="470" type="line"/>
      <point x="404" y="423" type="line"/>
      <point x="373" y="294" type="line"/>
      <point x="389" y="245" type="line"/>
      <point x="515" y="245" type="line"/>
    </contour>
  </outline>
</glyph>
<glyph name="yen" format="2">
  <advance width="567"/>
  <unicode hex="00A5"/>
  <outline>
    <contour>
      <point x="39" y="200" type="line"/>
      <point x="65" y="320" type="line"/>
      <point x="230" y="320" type="line"/>
      <point x="198" y="379" type="line"/>
      <point x="76" y="379" type="line"/>
      <point x="102" y="499" type="line"/>
      <point x="184" y="499" type="line"/>
      <point x="226" y="693" type="line"/>
      <point x="345" y="693" type="line"/>
      <point x="304" y="499" type="line"/>
      <point x="438" y="499" type="line"/>
      <point x="479" y="693" type="line"/>
      <point x="599" y="693" type="line"/>
      <point x="557" y="499" type="line"/>
      <point x="666" y="499" type="line"/>
      <point x="640" y="379" type="line"/>
      <point x="491" y="379" type="line"/>
      <point x="433" y="320" type="line"/>
      <point x="629" y="320" type="line"/>
      <point x="603" y="200" type="line"/>
      <point x="365" y="200" type="line"/>
      <point x="327" y="17" type="line"/>
      <point x="208" y="17" type="line"/>
      <point x="246" y="200" type="line"/>
    </contour>
  </outline>
</glyph>
<glyph name="brokenbar" format="2">
  <advance width="318"/>
  <unicode hex="00A6"/>
  <outline>
    <contour>
      <point x="35" y="-45" type="line"/>
      <point x="105" y="284" type="line"/>
      <point x="199" y="284" type="line"/>
      <point x="129" y="-45" type="line"/>
    </contour>
    <contour>
      <point x="206" y="761" type="line"/>
      <point x="302" y="761" type="line"/>
      <point x="233" y="443" type="line"/>
      <point x="138" y="443" type="line"/>
    </contour>
  </outline>
</glyph>
<glyph name="section" format="2">
  <advance width="449"/>
  <unicode hex="00A7"/>
  <outline>
    <contour>
      <point x="517" y="828" type="line"/>
      <point x="577" y="699" type="line"/>
      <point x="557" y="602" type="line"/>
      <point x="439" y="602" type="line"/>
      <point x="452" y="663" type="line"/>
      <point x="434" y="710" type="line"/>
      <point x="321" y="710" type="line"/>
      <point x="284" y="663" type="line"/>
      <point x="272" y="607" type="line"/>
      <point x="291" y="569" type="line"/>
      <point x="462" y="569" type="line"/>
      <point x="525" y="452" type="line"/>
      <point x="490" y="287" type="line"/>
      <point x="442" y="243" type="line"/>
      <point x="469" y="193" type="line"/>
      <point x="434" y="28" type="line"/>
      <point x="317" y="-107" type="line"/>
      <point x="88" y="-107" type="line"/>
      <point x="29" y="28" type="line"/>
      <point x="48" y="119" type="line"/>
      <point x="167" y="119" type="line"/>
      <point x="155" y="62" type="line"/>
      <point x="172" y="13" type="line"/>
      <point x="285" y="13" type="line"/>
      <point x="323" y="62" type="line"/>
      <point x="343" y="155" type="line"/>
      <point x="323" y="190" type="line"/>
      <point x="152" y="192" type="line"/>
      <point x="88" y="308" type="line"/>
      <point x="116" y="440" type="line"/>
      <point x="177" y="507" type="line"/>
      <point x="144" y="567" type="line"/>
      <point x="172" y="699" type="line"/>
      <point x="288" y="828" type="line"/>
    </contour>
    <contour>
      <point x="216" y="347" type="line"/>
      <point x="235" y="310" type="line"/>
      <point x="370" y="310" type="line"/>
      <point x="384" y="339" type="line"/>
      <point x="396" y="404" type="line"/>
      <point x="378" y="451" type="line"/>
      <point x="265" y="451" type="line"/>
      <point x="228" y="404" type="line"/>
    </contour>
  </outline>
</glyph>
<glyph name="dieresis" format="2">
  <advance width="683"/>
  <unicode hex="00A8"/>
  <outline>
    <contour>
      <point x="357" y="533" type="line"/>
      <point x="383" y="653" type="line"/>
      <point x="502" y="653" type="line"/>
      <point x="476" y="533" type="line"/>
    </contour>
    <contour>
      <point x="556" y="533" type="line"/>
      <point x="582" y="653" type="line"/>
      <point x="701" y="653" type="line"/>
      <point x="675" y="533" type="line"/>
    </contour>
  </outline>
</glyph>
<glyph name="ordfeminine" format="2">
  <advance width="460"/>
  <unicode hex="00AA"/>
  <outline>
    <contour>
      <point x="239" y="630" type="line"/>
      <point x="395" y="630" type="line"/>
      <point x="437" y="546" type="line"/>
      <point x="360" y="183" type="line"/>
      <point x="282" y="183" type="line"/>
      <point x="324" y="380" type="line"/>
      <point x="206" y="380" type="line"/>
      <point x="188" y="295" type="line"/>
      <point x="199" y="262" type="line"/>
      <point x="264" y="262" type="line"/>
      <point x="247" y="183" type="line"/>
      <point x="144" y="183" type="line"/>
      <point x="105" y="272" type="line"/>
      <point x="163" y="546" type="line"/>
    </contour>
    <contour>
      <point x="341" y="459" type="line"/>
      <point x="354" y="522" type="line"/>
      <point x="340" y="552" type="line"/>
      <point x="261" y="552" type="line"/>
      <point x="255" y="546"/>
      <point x="242" y="528"/>
      <point x="237" y="522" type="qcurve"/>
      <point x="223" y="459" type="line"/>
    </contour>
  </outline>
</glyph>
<glyph name="plusminus" format="2">
  <advance width="401"/>
  <unicode hex="00B1"/>
  <outline>
    <contour>
      <point x="252" y="563" type="line"/>
      <point x="371" y="563" type="line"/>
      <point x="344" y="434" type="line"/>
      <point x="469" y="434" type="line"/>
      <point x="443" y="314" type="line"/>
      <point x="320" y="314" type="line"/>
      <point x="292" y="179" type="line"/>
      <point x="173" y="179" type="line"/>
      <point x="201" y="314" type="line"/>
      <point x="79" y="314" type="line"/>
      <point x="105" y="434" type="line"/>
      <point x="225" y="434" type="line"/>
    </contour>
    <contour>
      <point x="28" y="39" type="line"/>
      <point x="54" y="159" type="line"/>
      <point x="418" y="159" type="line"/>
      <point x="392" y="39" type="line"/>
    </contour>
  </outline>
</glyph>
<glyph name="twosuperior" format="2">
  <advance width="351"/>
  <unicode hex="00B2"/>
  <outline>
    <contour>
      <point x="395" y="341" type="line"/>
      <point x="377" y="263" type="line"/>
      <point x="332" y="263" type="line"/>
      <point x="266" y="183" type="line"/>
      <point x="125" y="183" type="line"/>
      <point x="83" y="271" type="line"/>
      <point x="108" y="379" type="line"/>
      <point x="187" y="457" type="line"/>
      <point x="306" y="457" type="line"/>
      <point x="331" y="483" type="line"/>
      <point x="340" y="520" type="line"/>
      <point x="327" y="552" type="line"/>
      <point x="249" y="552" type="line"/>
      <point x="223" y="520" type="line"/>
      <point x="213" y="478" type="line"/>
      <point x="131" y="478" type="line"/>
      <point x="145" y="544" type="line"/>
      <point x="225" y="629" type="line"/>
      <point x="386" y="629" type="line"/>
      <point x="427" y="547" type="line"/>
      <point x="408" y="455" type="line"/>
      <point x="329" y="379" type="line"/>
      <point x="211" y="379" type="line"/>
      <point x="205" y="373"/>
      <point x="192" y="361"/>
      <point x="185" y="355" type="qcurve"/>
      <point x="172" y="294" type="line"/>
      <point x="183" y="261" type="line"/>
      <point x="236" y="261" type="line"/>
      <point x="302" y="341" type="line"/>
    </contour>
  </outline>
</glyph>
<glyph name="threesuperior" format="2">
  <advance width="452"/>
  <unicode hex="00B3"/>
  <outline>
    <contour>
      <point x="227" y="630" type="line"/>
      <point x="386" y="630" type="line"/>
      <point x="427" y="546" type="line"/>
      <point x="402" y="441" type="line"/>
      <point x="363" y="404" type="line"/>
      <point x="368" y="395"/>
      <point x="379" y="376"/>
      <point x="385" y="367" type="qcurve"/>
      <point x="363" y="270" type="line"/>
      <point x="282" y="183" type="line"/>
      <point x="124" y="183" type="line"/>
      <point x="83" y="270" type="line"/>
      <point x="96" y="329" type="line"/>
      <point x="178" y="329" type="line"/>
      <point x="170" y="292" type="line"/>
      <point x="182" y="260" type="line"/>
      <point x="260" y="260" type="line"/>
      <point x="286" y="292" type="line"/>
      <point x="297" y="341" type="line"/>
      <point x="283" y="365" type="line"/>
      <point x="201" y="365" type="line"/>
      <point x="218" y="443" type="line"/>
      <point x="301" y="443" type="line"/>
      <point x="330" y="476" type="line"/>
      <point x="341" y="523" type="line"/>
      <point x="328" y="553" type="line"/>
      <point x="250" y="553" type="line"/>
      <point x="224" y="523" type="line"/>
      <point x="215" y="483" type="line"/>
      <point x="133" y="483" type="line"/>
      <point x="147" y="546" type="line"/>
    </contour>
  </outline>
</glyph>
<glyph name="acute" format="2">
  <advance width="520"/>
  <unicode hex="00B4"/>
  <outline>
    <contour>
      <point x="295" y="727" type="line"/>
      <point x="393" y="897" type="line"/>
      <point x="494" y="827" type="line"/>
      <point x="428" y="727" type="line"/>
    </contour>
  </outline>
</glyph>
<glyph name="paragraph" format="2">
  <advance width="676"/>
  <unicode hex="00B6"/>
  <outline>
    <contour>
      <point x="516" y="-82" type="line"/>
      <point x="696" y="735" type="line"/>
      <point x="575" y="735" type="line"/>
      <point x="393" y="-82" type="line"/>
      <point x="299" y="-82" type="line"/>
      <point x="425" y="473" type="line"/>
      <point x="222" y="473" type="line"/>
      <point x="173" y="584" type="line"/>
      <point x="200" y="723" type="line"/>
      <point x="296" y="829" type="line"/>
      <point x="963" y="829" type="line"/>
      <point x="937" y="735" type="line"/>
      <point x="792" y="735" type="line"/>
      <point x="610" y="-82" type="line"/>
    </contour>
  </outline>
</glyph>
<glyph name="periodcentered" format="2">
  <advance width="401"/>
  <unicode hex="00B7"/>
  <outline>
    <contour>
      <point x="261" y="537" type="line"/>
      <point x="287" y="657" type="line"/>
      <point x="406" y="657" type="line"/>
      <point x="380" y="537" type="line"/>
    </contour>
  </outline>
</glyph>
<glyph name="cedilla" format="2">
  <advance width="263"/>
  <unicode hex="00B8"/>
  <outline>
    <contour>
      <point x="239" y="83" type="line"/>
      <point x="217" y="2" type="line"/>
      <point x="224" y="-8" type="line"/>
      <point x="325" y="-8" type="line"/>
      <point x="368" y="-76" type="line"/>
      <point x="345" y="-165" type="line"/>
      <point x="269" y="-239" type="line"/>
      <point x="121" y="-239" type="line"/>
      <point x="81" y="-161" type="line"/>
      <point x="91" y="-121" type="line"/>
      <point x="186" y="-121" type="line"/>
      <point x="181" y="-144" type="line"/>
      <point x="187" y="-159" type="line"/>
      <point x="240" y="-159" type="line"/>
      <point x="256" y="-141" type="line"/>
      <point x="258" y="-130"/>
      <point x="266" y="-100"/>
      <point x="269" y="-89" type="qcurve"/>
      <point x="261" y="-78" type="line"/>
      <point x="160" y="-78" type="line"/>
      <point x="116" y="-21" type="line"/>
      <point x="148" y="83" type="line"/>
    </contour>
  </outline>
</glyph>
<glyph name="onesuperior" format="2">
  <advance width="416"/>
  <unicode hex="00B9"/>
  <outline>
    <contour>
      <point x="284" y="294" type="line"/>
      <point x="299" y="261" type="line"/>
      <point x="382" y="261" type="line"/>
      <point x="360" y="183" type="line"/>
      <point x="227" y="183" type="line"/>
      <point x="177" y="271" type="line"/>
      <point x="249" y="552" type="line"/>
      <point x="147" y="552" type="line"/>
      <point x="168" y="630" type="line"/>
      <point x="372" y="630" type="line"/>
    </contour>
  </outline>
</glyph>
<glyph name="ordmasculine" format="2">
  <advance width="472"/>
  <unicode hex="00BA"/>
  <outline>
    <contour>
      <point x="244" y="630" type="line"/>
      <point x="417" y="630" type="line"/>
      <point x="460" y="544" type="line"/>
      <point x="397" y="273" type="line"/>
      <point x="314" y="183" type="line"/>
      <point x="141" y="183" type="line"/>
      <point x="98" y="271" type="line"/>
      <point x="160" y="544" type="line"/>
    </contour>
    <contour>
      <point x="317" y="295" type="line"/>
      <point x="369" y="521" type="line"/>
      <point x="357" y="552" type="line"/>
      <point x="267" y="552" type="line"/>
      <point x="241" y="521" type="line"/>
      <point x="189" y="295" type="line"/>
      <point x="200" y="263" type="line"/>
      <point x="291" y="263" type="line"/>
    </contour>
  </outline>
</glyph>
<glyph name="questiondown" format="2">
  <advance width="452"/>
  <unicode hex="00BF"/>
  <outline>
    <contour>
      <point x="340" y="17" type="line"/>
      <point x="111" y="17" type="line"/>
      <point x="51" y="146" type="line"/>
      <point x="79" y="278" type="line"/>
      <point x="192" y="395" type="line"/>
      <point x="255" y="395" type="line"/>
      <point x="289" y="432" type="line"/>
      <point x="311" y="535" type="line"/>
      <point x="430" y="535" type="line"/>
      <point x="400" y="393" type="line"/>
      <point x="286" y="277" type="line"/>
      <point x="224" y="277" type="line"/>
      <point x="188" y="239" type="line"/>
      <point x="176" y="182" type="line"/>
      <point x="194" y="135" type="line"/>
      <point x="307" y="135" type="line"/>
      <point x="344" y="182" type="line"/>
      <point x="357" y="244" type="line"/>
      <point x="476" y="244" type="line"/>
      <point x="456" y="146" type="line"/>
    </contour>
    <contour>
      <point x="439" y="574" type="line"/>
      <point x="320" y="574" type="line"/>
      <point x="345" y="693" type="line"/>
      <point x="464" y="693" type="line"/>
    </contour>
  </outline>
</glyph>
<glyph name="multiply" format="2">
  <advance width="384"/>
  <unicode hex="00D7"/>
  <outline>
    <contour>
      <point x="326" y="141" type="line"/>
      <point x="236" y="246" type="line"/>
      <point x="101" y="141" type="line"/>
      <point x="46" y="234" type="line"/>
      <point x="166" y="327" type="line"/>
      <point x="86" y="421" type="line"/>
      <point x="180" y="512" type="line"/>
      <point x="270" y="408" type="line"/>
      <point x="405" y="512" type="line"/>
      <point x="462" y="421" type="line"/>
      <point x="341" y="327" type="line"/>
      <point x="422" y="234" type="line"/>
    </contour>
  </outline>
</glyph>
<glyph name="germandbls" format="2">
  <advance width="454"/>
  <unicode hex="00DF"/>
  <outline>
    <contour>
      <point x="346" y="186" type="line"/>
      <point x="362" y="262" type="line"/>
      <point x="342" y="299" type="line"/>
      <point x="236" y="299" type="line"/>
      <point x="265" y="418" type="line"/>
      <point x="366" y="418" type="line"/>
      <point x="375" y="427"/>
      <point x="394" y="445"/>
      <point x="403" y="455" type="qcurve"/>
      <point x="419" y="528" type="line"/>
      <point x="401" y="575" type="line"/>
      <point x="295" y="575" type="line"/>
      <point x="257" y="528" type="line"/>
      <point x="150" y="17" type="line"/>
      <point x="34" y="17" type="line"/>
      <point x="145" y="564" type="line"/>
      <point x="263" y="693" type="line"/>
      <point x="484" y="693" type="line"/>
      <point x="544" y="564" type="line"/>
      <point x="513" y="416" type="line"/>
      <point x="457" y="359" type="line"/>
      <point x="465" y="345"/>
      <point x="483" y="315"/>
      <point x="489" y="302" type="qcurve"/>
      <point x="457" y="152" type="line"/>
      <point x="340" y="17" type="line"/>
      <point x="183" y="17" type="line"/>
      <point x="209" y="137" type="line"/>
      <point x="308" y="137" type="line"/>
    </contour>
  </outline>
</glyph>
<glyph name="divide" format="2">
  <advance width="436"/>
  <unicode hex="00F7"/>
  <outline>
    <contour>
      <point x="79" y="314" type="line"/>
      <point x="105" y="434" type="line"/>
      <point x="507" y="434" type="line"/>
      <point x="481" y="314" type="line"/>
    </contour>
    <contour>
      <point x="162" y="137" type="line"/>
      <point x="188" y="257" type="line"/>
      <point x="307" y="257" type="line"/>
      <point x="281" y="137" type="line"/>
    </contour>
    <contour>
      <point x="255" y="575" type="line"/>
      <point x="374" y="575" type="line"/>
      <point x="349" y="456" type="line"/>
      <point x="230" y="456" type="line"/>
    </contour>
  </outline>
</glyph>
<glyph name="oslash" format="2">
  <advance width="472"/>
  <unicode hex="00F8"/>
  <outline>
    <contour>
      <point x="84" y="-34" type="line"/>
      <point x="113" y="29" type="line"/>
      <point x="59" y="152" type="line"/>
      <point x="146" y="564" type="line"/>
      <point x="263" y="693" type="line"/>
      <point x="421" y="693" type="line"/>
      <point x="443" y="739" type="line"/>
      <point x="535" y="739" type="line"/>
      <point x="509" y="682" type="line"/>
      <point x="564" y="564" type="line"/>
      <point x="477" y="152" type="line"/>
      <point x="360" y="17" type="line"/>
      <point x="199" y="17" type="line"/>
      <point x="176" y="-34" type="line"/>
    </contour>
    <contour>
      <point x="365" y="186" type="line"/>
      <point x="438" y="528" type="line"/>
      <point x="437" y="529" type="line"/>
      <point x="255" y="137" type="line"/>
      <point x="328" y="137" type="line"/>
    </contour>
    <contour>
      <point x="259" y="528" type="line"/>
      <point x="186" y="186" type="line"/>
      <point x="366" y="575" type="line"/>
      <point x="295" y="575" type="line"/>
    </contour>
  </outline>
</glyph>
<glyph name="thorn" format="2">
  <advance width="522"/>
  <unicode hex="00FE"/>
  <outline>
    <contour>
      <point x="206" y="761" type="line"/>
      <point x="336" y="761" type="line"/>
      <point x="310" y="640" type="line"/>
      <point x="553" y="640" type="line"/>
      <point x="613" y="511" type="line"/>
      <point x="557" y="253" type="line"/>
      <point x="440" y="118" type="line"/>
      <point x="198" y="118" type="line"/>
      <point x="163" y="-45" type="line"/>
      <point x="35" y="-45" type="line"/>
    </contour>
    <contour>
      <point x="445" y="287" type="line"/>
      <point x="487" y="475" type="line"/>
      <point x="470" y="522" type="line"/>
      <point x="285" y="522" type="line"/>
      <point x="224" y="238" type="line"/>
      <point x="408" y="238" type="line"/>
    </contour>
  </outline>
</glyph>
<glyph name="uni0237" format="2">
  <advance width="214"/>
  <unicode hex="0237"/>
  <outline>
    <contour>
      <point x="147" y="-177" type="line"/>
      <point x="28" y="-177" type="line"/>
      <point x="58" y="-9" type="line"/>
      <point x="177" y="-9" type="line"/>
    </contour>
  </outline>
</glyph>
<glyph name="circumflex" format="2">
  <advance width="683"/>
  <unicode hex="02C6"/>
  <outline>
    <contour>
      <point x="437" y="669" type="line"/>
      <point x="378" y="534" type="line"/>
      <point x="264" y="534" type="line"/>
      <point x="323" y="669" type="line"/>
    </contour>
    <contour>
      <point x="583" y="669" type="line"/>
      <point x="641" y="534" type="line"/>
      <point x="527" y="534" type="line"/>
      <point x="468" y="669" type="line"/>
    </contour>
  </outline>
</glyph>
<glyph name="caron" format="2">
  <advance width="547"/>
  <unicode hex="02C7"/>
  <outline>
    <contour>
      <point x="503" y="533" type="line"/>
      <point x="420" y="660" type="line"/>
      <point x="465" y="702" type="line"/>
      <point x="546" y="634" type="line"/>
      <point x="657" y="692" type="line"/>
      <point x="702" y="657" type="line"/>
      <point x="608" y="533" type="line"/>
    </contour>
  </outline>
</glyph>
<glyph name="uni02C9" format="2">
  <advance width="590"/>
  <unicode hex="02C9"/>
  <outline>
    <contour>
      <point x="247" y="534" type="line"/>
      <point x="247" y="653" type="line"/>
      <point x="541" y="653" type="line"/>
      <point x="541" y="534" type="line"/>
    </contour>
  </outline>
</glyph>
<glyph name="breve" format="2">
  <advance width="833"/>
  <unicode hex="02D8"/>
  <outline>
    <contour>
      <point x="705" y="533" type="line"/>
      <point x="537" y="533" type="line"/>
      <point x="489" y="659" type="line"/>
      <point x="498" y="698" type="line"/>
      <point x="599" y="698" type="line"/>
      <point x="596" y="683" type="line"/>
      <point x="608" y="650" type="line"/>
      <point x="675" y="650" type="line"/>
      <point x="719" y="683" type="line"/>
      <point x="723" y="698" type="line"/>
      <point x="810" y="698" type="line"/>
      <point x="800" y="659" type="line"/>
    </contour>
  </outline>
</glyph>
<glyph name="ring" format="2">
  <advance width="313"/>
  <unicode hex="02DA"/>
  <outline>
    <contour>
      <point x="219" y="768" type="qcurve" smooth="yes"/>
      <point x="244" y="768"/>
      <point x="287" y="749"/>
      <point x="319" y="718"/>
      <point x="338" y="675"/>
      <point x="338" y="651" type="qcurve" smooth="yes"/>
      <point x="338" y="627"/>
      <point x="319" y="584"/>
      <point x="287" y="553"/>
      <point x="244" y="534"/>
      <point x="219" y="534" type="qcurve" smooth="yes"/>
      <point x="194" y="534"/>
      <point x="151" y="553"/>
      <point x="119" y="584"/>
      <point x="101" y="627"/>
      <point x="101" y="651" type="qcurve" smooth="yes"/>
      <point x="101" y="675"/>
      <point x="119" y="718"/>
      <point x="151" y="749"/>
      <point x="194" y="768"/>
    </contour>
    <contour>
      <point x="219" y="615" type="qcurve" smooth="yes"/>
      <point x="235" y="615"/>
      <point x="256" y="636"/>
      <point x="256" y="651" type="qcurve" smooth="yes"/>
      <point x="256" y="666"/>
      <point x="235" y="687"/>
      <point x="219" y="687" type="qcurve" smooth="yes"/>
      <point x="205" y="687"/>
      <point x="183" y="666"/>
      <point x="183" y="651" type="qcurve" smooth="yes"/>
      <point x="183" y="636"/>
      <point x="205" y="615"/>
    </contour>
  </outline>
</glyph>
<glyph name="ogonek" format="2">
  <advance width="535"/>
  <unicode hex="02DB"/>
  <outline>
    <contour>
      <point x="263" y="10" type="line"/>
      <point x="275" y="68" type="line"/>
      <point x="364" y="68" type="line"/>
      <point x="334" y="-61" type="line"/>
      <point x="191" y="-61" type="line"/>
      <point x="176" y="-132" type="line"/>
      <point x="178" y="-137"/>
      <point x="180" y="-139"/>
      <point x="182" y="-144" type="qcurve"/>
      <point x="234" y="-144" type="line"/>
      <point x="248" y="-129" type="line"/>
      <point x="254" y="-106" type="line"/>
      <point x="339" y="-106" type="line"/>
      <point x="326" y="-158" type="line"/>
      <point x="260" y="-223" type="line"/>
      <point x="124" y="-223" type="line"/>
      <point x="89" y="-155" type="line"/>
      <point x="120" y="-18" type="line"/>
      <point x="175" y="10" type="line"/>
    </contour>
  </outline>
</glyph>
<glyph name="tilde" format="2">
  <advance width="419"/>
  <unicode hex="02DC"/>
  <outline>
    <contour>
      <point x="457" y="645" type="line"/>
      <point x="447" y="625"/>
      <point x="424" y="586"/>
      <point x="394" y="554"/>
      <point x="356" y="534"/>
      <point x="332" y="534" type="qcurve" smooth="yes"/>
      <point x="310" y="534"/>
      <point x="266" y="557"/>
      <point x="249" y="568" type="qcurve" smooth="yes"/>
      <point x="238" y="575"/>
      <point x="222" y="586"/>
      <point x="209" y="586"/>
      <point x="197" y="574"/>
      <point x="190" y="559" type="qcurve" smooth="yes"/>
      <point x="188" y="554"/>
      <point x="179" y="535"/>
      <point x="177" y="531" type="qcurve"/>
      <point x="91" y="567" type="line"/>
      <point x="100" y="587"/>
      <point x="123" y="627"/>
      <point x="154" y="658"/>
      <point x="192" y="678"/>
      <point x="215" y="678" type="qcurve" smooth="yes"/>
      <point x="237" y="678"/>
      <point x="280" y="656"/>
      <point x="297" y="644" type="qcurve" smooth="yes"/>
      <point x="315" y="632"/>
      <point x="335" y="627"/>
      <point x="350" y="637"/>
      <point x="363" y="661"/>
      <point x="373" y="678" type="qcurve"/>
    </contour>
  </outline>
</glyph>
<glyph name="hungarumlaut" format="2">
  <advance width="833"/>
  <unicode hex="02DD"/>
  <outline>
    <contour>
      <point x="423" y="533" type="line"/>
      <point x="521" y="703" type="line"/>
      <point x="622" y="633" type="line"/>
      <point x="556" y="533" type="line"/>
    </contour>
    <contour>
      <point x="617" y="533" type="line"/>
      <point x="715" y="703" type="line"/>
      <point x="816" y="633" type="line"/>
      <point x="750" y="533" type="line"/>
    </contour>
  </outline>
</glyph>
<glyph name="gravecomb" format="2">
  <advance width="453"/>
  <unicode hex="0300"/>
  <outline>
    <contour>
      <point x="323" y="534" type="line"/>
      <point x="254" y="664" type="line"/>
      <point x="365" y="664" type="line"/>
      <point x="424" y="534" type="line"/>
    </contour>
  </outline>
</glyph>
<glyph name="acutecomb" format="2">
  <advance width="453"/>
  <unicode hex="0301"/>
  <outline>
    <contour>
      <point x="291" y="534" type="line"/>
      <point x="350" y="664" type="line"/>
      <point x="461" y="664" type="line"/>
      <point x="392" y="534" type="line"/>
    </contour>
  </outline>
</glyph>
<glyph name="uni0302" format="2">
  <advance width="683"/>
  <unicode hex="0302"/>
  <outline>
    <contour>
      <point x="306" y="534" type="line"/>
      <point x="365" y="669" type="line"/>
      <point x="479" y="669" type="line"/>
      <point x="420" y="534" type="line"/>
    </contour>
    <contour>
      <point x="569" y="534" type="line"/>
      <point x="510" y="669" type="line"/>
      <point x="625" y="669" type="line"/>
      <point x="683" y="534" type="line"/>
    </contour>
  </outline>
</glyph>
<glyph name="tildecomb" format="2">
  <advance width="419"/>
  <unicode hex="0303"/>
  <outline>
    <contour>
      <point x="219" y="567" type="line"/>
      <point x="228" y="587"/>
      <point x="252" y="627"/>
      <point x="282" y="658"/>
      <point x="320" y="678"/>
      <point x="343" y="678" type="qcurve" smooth="yes"/>
      <point x="365" y="678"/>
      <point x="408" y="656"/>
      <point x="425" y="644" type="qcurve" smooth="yes"/>
      <point x="443" y="632"/>
      <point x="456" y="629"/>
      <point x="459" y="629" type="qcurve" smooth="yes"/>
      <point x="465" y="629"/>
      <point x="473" y="634"/>
      <point x="482" y="645"/>
      <point x="493" y="664"/>
      <point x="501" y="678" type="qcurve"/>
      <point x="585" y="645" type="line"/>
      <point x="575" y="625"/>
      <point x="552" y="586"/>
      <point x="522" y="554"/>
      <point x="484" y="534"/>
      <point x="460" y="534" type="qcurve" smooth="yes"/>
      <point x="438" y="534"/>
      <point x="394" y="557"/>
      <point x="377" y="568" type="qcurve" smooth="yes"/>
      <point x="366" y="575"/>
      <point x="350" y="586"/>
      <point x="337" y="586"/>
      <point x="325" y="574"/>
      <point x="318" y="559" type="qcurve" smooth="yes"/>
      <point x="316" y="554"/>
      <point x="307" y="535"/>
      <point x="305" y="531" type="qcurve"/>
    </contour>
  </outline>
</glyph>
<glyph name="uni0304" format="2">
  <advance width="572"/>
  <unicode hex="0304"/>
  <outline>
    <contour>
      <point x="258" y="534" type="line"/>
      <point x="258" y="653" type="line"/>
      <point x="552" y="653" type="line"/>
      <point x="552" y="534" type="line"/>
    </contour>
  </outline>
</glyph>
<glyph name="uni0306" format="2">
  <advance width="482"/>
  <unicode hex="0306"/>
  <outline>
    <contour>
      <point x="560" y="533" type="line"/>
      <point x="392" y="533" type="line"/>
      <point x="344" y="659" type="line"/>
      <point x="353" y="698" type="line"/>
      <point x="454" y="698" type="line"/>
      <point x="451" y="683" type="line"/>
      <point x="463" y="650" type="line"/>
      <point x="530" y="650" type="line"/>
      <point x="574" y="683" type="line"/>
      <point x="578" y="698" type="line"/>
      <point x="665" y="698" type="line"/>
      <point x="655" y="659" type="line"/>
    </contour>
  </outline>
</glyph>
<glyph name="uni0307" format="2">
  <advance width="216"/>
  <unicode hex="0307"/>
  <outline>
    <contour>
      <point x="35" y="537" type="line"/>
      <point x="61" y="657" type="line"/>
      <point x="180" y="657" type="line"/>
      <point x="154" y="537" type="line"/>
    </contour>
  </outline>
</glyph>
<glyph name="endash" format="2">
  <advance width="430"/>
  <unicode hex="2013"/>
  <outline>
    <contour>
      <point x="79" y="314" type="line"/>
      <point x="105" y="434" type="line"/>
      <point x="507" y="434" type="line"/>
      <point x="481" y="314" type="line"/>
    </contour>
  </outline>
</glyph>
<glyph name="emdash" format="2">
  <advance width="520"/>
  <unicode hex="2014"/>
  <outline>
    <contour>
      <point x="79" y="314" type="line"/>
      <point x="105" y="434" type="line"/>
      <point x="592" y="434" type="line"/>
      <point x="566" y="314" type="line"/>
    </contour>
  </outline>
</glyph>
<glyph name="quotedblright" format="2">
  <advance width="302"/>
  <unicode hex="201D"/>
  <outline>
    <contour>
      <point x="171" y="694" type="line"/>
      <point x="289" y="694" type="line"/>
      <point x="247" y="495" type="line"/>
      <point x="129" y="495" type="line"/>
    </contour>
    <contour>
      <point x="314" y="694" type="line"/>
      <point x="433" y="694" type="line"/>
      <point x="391" y="495" type="line"/>
      <point x="272" y="495" type="line"/>
    </contour>
  </outline>
</glyph>
<glyph name="quotedblbase" format="2">
  <advance width="346"/>
  <unicode hex="201E"/>
  <outline>
    <contour>
      <point x="125" y="-68" type="line"/>
      <point x="6" y="-68" type="line"/>
      <point x="50" y="137" type="line"/>
      <point x="169" y="137" type="line"/>
    </contour>
    <contour>
      <point x="292" y="-68" type="line"/>
      <point x="173" y="-68" type="line"/>
      <point x="217" y="137" type="line"/>
      <point x="336" y="137" type="line"/>
    </contour>
  </outline>
</glyph>
<glyph name="dagger" format="2">
  <advance width="577"/>
  <unicode hex="2020"/>
  <outline>
    <contour>
      <point x="109" y="415" type="line"/>
      <point x="135" y="535" type="line"/>
      <point x="331" y="535" type="line"/>
      <point x="410" y="919" type="line"/>
      <point x="537" y="919" type="line"/>
      <point x="457" y="535" type="line"/>
      <point x="680" y="535" type="line"/>
      <point x="665" y="415" type="line"/>
      <point x="432" y="415" type="line"/>
      <point x="296" y="-238" type="line"/>
      <point x="171" y="-238" type="line"/>
      <point x="306" y="415" type="line"/>
    </contour>
  </outline>
</glyph>
<glyph name="daggerdbl" format="2">
  <advance width="587"/>
  <unicode hex="2021"/>
  <outline>
    <contour>
      <point x="51" y="138" type="line"/>
      <point x="77" y="258" type="line"/>
      <point x="273" y="258" type="line"/>
      <point x="306" y="415" type="line"/>
      <point x="109" y="415" type="line"/>
      <point x="135" y="535" type="line"/>
      <point x="331" y="535" type="line"/>
      <point x="410" y="919" type="line"/>
      <point x="537" y="919" type="line"/>
      <point x="457" y="535" type="line"/>
      <point x="671" y="535" type="line"/>
      <point x="645" y="415" type="line"/>
      <point x="432" y="415" type="line"/>
      <point x="399" y="258" type="line"/>
      <point x="613" y="258" type="line"/>
      <point x="587" y="138" type="line"/>
      <point x="374" y="138" type="line"/>
      <point x="296" y="-238" type="line"/>
      <point x="171" y="-238" type="line"/>
      <point x="248" y="138" type="line"/>
    </contour>
  </outline>
</glyph>
<glyph name="bullet" format="2">
  <advance width="303"/>
  <unicode hex="2022"/>
  <outline>
    <contour>
      <point x="110" y="372" type="qcurve" smooth="yes"/>
      <point x="110" y="398"/>
      <point x="130" y="444"/>
      <point x="164" y="478"/>
      <point x="210" y="498"/>
      <point x="236" y="498" type="qcurve" smooth="yes"/>
      <point x="262" y="498"/>
      <point x="308" y="478"/>
      <point x="342" y="444"/>
      <point x="362" y="398"/>
      <point x="362" y="372" type="qcurve" smooth="yes"/>
      <point x="362" y="346"/>
      <point x="342" y="300"/>
      <point x="308" y="266"/>
      <point x="262" y="246"/>
      <point x="236" y="246" type="qcurve" smooth="yes"/>
      <point x="210" y="246"/>
      <point x="164" y="266"/>
      <point x="130" y="300"/>
      <point x="110" y="346"/>
    </contour>
  </outline>
</glyph>
<glyph name="ellipsis" format="2">
  <advance width="495"/>
  <unicode hex="2026"/>
  <outline>
    <contour>
      <point x="26" y="17" type="line"/>
      <point x="52" y="137" type="line"/>
      <point x="171" y="137" type="line"/>
      <point x="145" y="17" type="line"/>
    </contour>
    <contour>
      <point x="191" y="17" type="line"/>
      <point x="217" y="137" type="line"/>
      <point x="336" y="137" type="line"/>
      <point x="310" y="17" type="line"/>
    </contour>
    <contour>
      <point x="356" y="17" type="line"/>
      <point x="382" y="137" type="line"/>
      <point x="501" y="137" type="line"/>
      <point x="475" y="17" type="line"/>
    </contour>
  </outline>
</glyph>
<glyph name="perthousand" format="2">
  <advance width="1082"/>
  <unicode hex="2030"/>
  <outline>
    <contour>
      <point x="610" y="384" type="line"/>
      <point x="772" y="384" type="line"/>
      <point x="813" y="311" type="line"/>
      <point x="754" y="77" type="line"/>
      <point x="675" y="0" type="line"/>
      <point x="512" y="0" type="line"/>
      <point x="472" y="77" type="line"/>
      <point x="530" y="311" type="line"/>
    </contour>
    <contour>
      <point x="667" y="131" type="line"/>
      <point x="698" y="256" type="line"/>
      <point x="691" y="274" type="line"/>
      <point x="632" y="274" type="line"/>
      <point x="616" y="256" type="line"/>
      <point x="584" y="131" type="line"/>
      <point x="592" y="112" type="line"/>
      <point x="650" y="112" type="line"/>
    </contour>
    <contour>
      <point x="227" y="693" type="line"/>
      <point x="389" y="693" type="line"/>
      <point x="430" y="620" type="line"/>
      <point x="371" y="386" type="line"/>
      <point x="292" y="309" type="line"/>
      <point x="129" y="309" type="line"/>
      <point x="89" y="386" type="line"/>
      <point x="147" y="620" type="line"/>
    </contour>
    <contour>
      <point x="18" y="17" type="line"/>
      <point x="742" y="693" type="line"/>
      <point x="910" y="693" type="line"/>
      <point x="186" y="17" type="line"/>
    </contour>
    <contour>
      <point x="284" y="445" type="line"/>
      <point x="315" y="570" type="line"/>
      <point x="308" y="588" type="line"/>
      <point x="249" y="588" type="line"/>
      <point x="233" y="570" type="line"/>
      <point x="201" y="445" type="line"/>
      <point x="209" y="426" type="line"/>
      <point x="267" y="426" type="line"/>
    </contour>
    <contour>
      <point x="924" y="384" type="line"/>
      <point x="1086" y="384" type="line"/>
      <point x="1127" y="311" type="line"/>
      <point x="1068" y="77" type="line"/>
      <point x="989" y="0" type="line"/>
      <point x="826" y="0" type="line"/>
      <point x="786" y="77" type="line"/>
      <point x="844" y="311" type="line"/>
    </contour>
    <contour>
      <point x="981" y="131" type="line"/>
      <point x="1012" y="256" type="line"/>
      <point x="1005" y="274" type="line"/>
      <point x="946" y="274" type="line"/>
      <point x="930" y="256" type="line"/>
      <point x="898" y="131" type="line"/>
      <point x="906" y="112" type="line"/>
      <point x="964" y="112" type="line"/>
    </contour>
  </outline>
</glyph>
<glyph name="Euro" format="2">
  <advance width="515"/>
  <unicode hex="20AC"/>
  <outline>
    <contour>
      <point x="57" y="224" type="line"/>
      <point x="83" y="344" type="line"/>
      <point x="144" y="344" type="line"/>
      <point x="154" y="390" type="line"/>
      <point x="91" y="390" type="line"/>
      <point x="117" y="510" type="line"/>
      <point x="179" y="510" type="line"/>
      <point x="191" y="564" type="line"/>
      <point x="307" y="693" type="line"/>
      <point x="548" y="693" type="line"/>
      <point x="608" y="564" type="line"/>
      <point x="588" y="467" type="line"/>
      <point x="469" y="467" type="line"/>
      <point x="482" y="528" type="line"/>
      <point x="465" y="575" type="line"/>
      <point x="340" y="575" type="line"/>
      <point x="303" y="528" type="line"/>
      <point x="299" y="510" type="line"/>
      <point x="361" y="510" type="line"/>
      <point x="335" y="390" type="line"/>
      <point x="273" y="390" type="line"/>
      <point x="263" y="344" type="line"/>
      <point x="327" y="344" type="line"/>
      <point x="301" y="224" type="line"/>
      <point x="238" y="224" type="line"/>
      <point x="230" y="186" type="line"/>
      <point x="247" y="137" type="line"/>
      <point x="372" y="137" type="line"/>
      <point x="409" y="186" type="line"/>
      <point x="421" y="243" type="line"/>
      <point x="540" y="243" type="line"/>
      <point x="521" y="152" type="line"/>
      <point x="404" y="17" type="line"/>
      <point x="163" y="17" type="line"/>
      <point x="104" y="152" type="line"/>
      <point x="119" y="224" type="line"/>
    </contour>
  </outline>
</glyph>
<glyph name="trademark" format="2">
  <advance width="477"/>
  <unicode hex="2122"/>
  <outline>
    <contour>
      <point x="164" y="693" type="line"/>
      <point x="366" y="693" type="line"/>
      <point x="345" y="590" type="line"/>
      <point x="294" y="590" type="line"/>
      <point x="304" y="639" type="line"/>
      <point x="281" y="639" type="line"/>
      <point x="246" y="461" type="line"/>
      <point x="248" y="457"/>
      <point x="251" y="443"/>
      <point x="254" y="439" type="qcurve"/>
      <point x="295" y="439" type="line"/>
      <point x="283" y="384" type="line"/>
      <point x="217" y="384" type="line"/>
      <point x="191" y="446" type="line"/>
      <point x="230" y="639" type="line"/>
      <point x="204" y="639" type="line"/>
      <point x="194" y="590" type="line"/>
      <point x="143" y="590" type="line"/>
    </contour>
    <contour>
      <point x="554" y="693" type="line"/>
      <point x="613" y="693" type="line"/>
      <point x="551" y="384" type="line"/>
      <point x="501" y="384" type="line"/>
      <point x="545" y="604" type="line"/>
      <point x="464" y="502" type="line"/>
      <point x="454" y="502" type="line"/>
      <point x="414" y="604" type="line"/>
      <point x="386" y="461" type="line"/>
      <point x="393" y="439" type="line"/>
      <point x="435" y="439" type="line"/>
      <point x="424" y="384" type="line"/>
      <point x="357" y="384" type="line"/>
      <point x="332" y="446" type="line"/>
      <point x="381" y="693" type="line"/>
      <point x="440" y="693" type="line"/>
      <point x="478" y="596" type="line"/>
    </contour>
  </outline>
</glyph>
